<svg width="225" height="225" viewBox="0 0 225 225" fill="none" xmlns="http://www.w3.org/2000/svg">
    <circle cx="112.5" cy="112.5" r="112.5" fill="#3B3B3B"/>
    <path d="M30.725 130.048C30.725 121.088 37.381 118.528 37.381 112.128C37.381 103.68 31.493 98.56 31.493 90.496C31.493 83.2 38.149 78.72 51.205 78.72C62.725 78.72 69.637 85.632 69.637 96.512V98.944C71.685 98.176 73.861 97.792 75.781 97.792C83.077 97.792 88.069 103.808 88.069 113.024C88.069 119.04 85.893 135.552 85.253 146.304C85.125 148.352 84.997 150.016 84.869 151.04C83.205 163.968 79.749 168.32 69.125 168.32C57.989 168.32 49.413 163.072 49.413 155.52C49.413 151.68 51.205 148.224 54.789 143.104C53.765 143.232 52.741 143.232 51.717 143.232C41.221 143.232 30.725 138.24 30.725 130.048ZM85.597 115.968C85.597 92.672 97.373 78.72 115.805 78.72C135.005 78.72 147.293 92.672 147.293 115.968C147.293 138.24 135.005 152.96 115.805 152.96C97.373 152.96 85.597 138.24 85.597 115.968ZM144.225 130.048C144.225 121.088 150.881 118.528 150.881 112.128C150.881 103.68 144.993 98.56 144.993 90.496C144.993 83.2 151.649 78.72 164.705 78.72C176.225 78.72 183.137 85.632 183.137 96.512V98.944C185.185 98.176 187.361 97.792 189.281 97.792C196.577 97.792 201.569 103.808 201.569 113.024C201.569 119.04 199.393 135.552 198.753 146.304C198.625 148.352 198.497 150.016 198.369 151.04C196.705 163.968 193.249 168.32 182.625 168.32C171.489 168.32 162.913 163.072 162.913 155.52C162.913 151.68 164.705 148.224 168.289 143.104C167.265 143.232 166.241 143.232 165.217 143.232C154.721 143.232 144.225 138.24 144.225 130.048Z" fill="#151515"/>
    <path d="M63.605 155.264C54.773 155.264 48.245 151.296 48.245 146.56C48.245 143.744 49.397 140.928 54.645 133.12C57.589 132.224 60.149 130.944 62.325 129.152C62.837 128.768 62.325 128.128 61.813 128.256C58.613 129.664 54.261 130.304 49.781 130.304C40.053 130.304 29.557 127.104 29.557 121.088C29.557 114.56 36.213 111.104 36.213 103.168C36.213 95.232 30.325 88.192 30.325 81.536C30.325 77.568 34.677 73.856 45.685 73.856C55.413 73.856 61.173 80.256 61.173 90.496C61.173 96.64 60.149 104.96 58.101 115.968C55.797 115.84 53.621 115.328 51.061 114.432C49.525 113.92 49.397 116.48 51.061 116.864C56.565 118.144 61.045 118.144 67.317 117.248C68.853 116.992 68.981 114.304 67.317 114.816C64.629 115.712 62.197 116.096 59.893 116.096C61.813 107.52 63.093 100.224 63.733 94.336C66.037 93.44 68.085 92.928 69.749 92.928C75.125 92.928 78.197 96.896 78.197 104.064C78.197 109.824 76.021 126.208 75.381 136.96L74.997 141.824C73.845 152.576 71.669 155.264 63.605 155.264ZM110.157 139.904C94.413 139.904 84.429 127.616 84.429 107.008C84.429 87.04 94.413 73.856 110.157 73.856C126.797 73.856 137.165 87.04 137.165 107.008C137.165 127.616 126.797 139.904 110.157 139.904ZM109.645 117.12C109.005 120.192 112.333 120.192 112.461 117.12C112.717 109.696 113.229 100.864 112.461 93.44C112.205 90.752 109.261 90.752 109.645 93.44C110.669 100.864 111.181 109.696 109.645 117.12ZM177.105 155.264C168.273 155.264 161.745 151.296 161.745 146.56C161.745 143.744 162.897 140.928 168.145 133.12C171.089 132.224 173.649 130.944 175.825 129.152C176.337 128.768 175.825 128.128 175.313 128.256C172.113 129.664 167.761 130.304 163.281 130.304C153.553 130.304 143.057 127.104 143.057 121.088C143.057 114.56 149.713 111.104 149.713 103.168C149.713 95.232 143.825 88.192 143.825 81.536C143.825 77.568 148.177 73.856 159.185 73.856C168.913 73.856 174.673 80.256 174.673 90.496C174.673 96.64 173.649 104.96 171.601 115.968C169.297 115.84 167.121 115.328 164.561 114.432C163.025 113.92 162.897 116.48 164.561 116.864C170.065 118.144 174.545 118.144 180.817 117.248C182.353 116.992 182.481 114.304 180.817 114.816C178.129 115.712 175.697 116.096 173.393 116.096C175.313 107.52 176.593 100.224 177.233 94.336C179.537 93.44 181.585 92.928 183.249 92.928C188.625 92.928 191.697 96.896 191.697 104.064C191.697 109.824 189.521 126.208 188.881 136.96L188.497 141.824C187.345 152.576 185.169 155.264 177.105 155.264Z" fill="#8E8E8E"/>
    <path d="M70.261 88.832C77.557 88.832 82.549 94.848 82.549 104.064C82.549 110.08 80.373 126.592 79.733 137.344C79.605 139.392 79.477 141.056 79.349 142.08C77.685 155.008 74.229 159.36 63.605 159.36C52.469 159.36 43.893 154.112 43.893 146.56C43.893 142.72 45.685 139.264 49.269 134.144C48.245 134.272 47.221 134.272 46.197 134.272C35.701 134.272 25.205 129.28 25.205 121.088C25.205 112.128 31.861 109.568 31.861 103.168C31.861 94.72 25.973 89.6 25.973 81.536C25.973 74.24 32.629 69.76 45.685 69.76C57.205 69.76 64.117 76.672 64.117 87.552V89.984C66.165 89.216 68.341 88.832 70.261 88.832ZM75.381 136.96C76.021 126.208 78.197 109.824 78.197 104.064C78.197 96.896 75.125 92.928 69.749 92.928C68.085 92.928 66.037 93.44 63.733 94.336C63.093 100.224 61.813 107.52 59.893 116.096C62.197 116.096 64.629 115.712 67.317 114.816C68.981 114.304 68.853 116.992 67.317 117.248C61.045 118.144 56.565 118.144 51.061 116.864C49.397 116.48 49.525 113.92 51.061 114.432C53.621 115.328 55.797 115.84 58.101 115.968C60.149 104.96 61.173 96.64 61.173 90.496C61.173 80.256 55.413 73.856 45.685 73.856C34.677 73.856 30.325 77.568 30.325 81.536C30.325 88.192 36.213 95.232 36.213 103.168C36.213 111.104 29.557 114.56 29.557 121.088C29.557 127.104 40.053 130.304 49.781 130.304C54.261 130.304 58.613 129.664 61.813 128.256C62.325 128.128 62.837 128.768 62.325 129.152C60.149 130.944 57.589 132.224 54.645 133.12C49.397 140.928 48.245 143.744 48.245 146.56C48.245 151.296 54.773 155.264 63.605 155.264C71.669 155.264 73.845 152.576 74.997 141.824L75.381 136.96ZM110.285 144C91.853 144 80.077 129.28 80.077 107.008C80.077 83.712 91.853 69.76 110.285 69.76C129.485 69.76 141.773 83.712 141.773 107.008C141.773 129.28 129.485 144 110.285 144ZM110.157 139.904C126.797 139.904 137.165 127.616 137.165 107.008C137.165 87.04 126.797 73.856 110.157 73.856C94.413 73.856 84.429 87.04 84.429 107.008C84.429 127.616 94.413 139.904 110.157 139.904ZM109.645 117.12C111.181 109.696 110.669 100.864 109.645 93.44C109.261 90.752 112.205 90.752 112.461 93.44C113.229 100.864 112.717 109.696 112.461 117.12C112.333 120.192 109.005 120.192 109.645 117.12ZM183.761 88.832C191.057 88.832 196.049 94.848 196.049 104.064C196.049 110.08 193.873 126.592 193.233 137.344C193.105 139.392 192.977 141.056 192.849 142.08C191.185 155.008 187.729 159.36 177.105 159.36C165.969 159.36 157.393 154.112 157.393 146.56C157.393 142.72 159.185 139.264 162.769 134.144C161.745 134.272 160.721 134.272 159.697 134.272C149.201 134.272 138.705 129.28 138.705 121.088C138.705 112.128 145.361 109.568 145.361 103.168C145.361 94.72 139.473 89.6 139.473 81.536C139.473 74.24 146.129 69.76 159.185 69.76C170.705 69.76 177.617 76.672 177.617 87.552V89.984C179.665 89.216 181.841 88.832 183.761 88.832ZM188.881 136.96C189.521 126.208 191.697 109.824 191.697 104.064C191.697 96.896 188.625 92.928 183.249 92.928C181.585 92.928 179.537 93.44 177.233 94.336C176.593 100.224 175.313 107.52 173.393 116.096C175.697 116.096 178.129 115.712 180.817 114.816C182.481 114.304 182.353 116.992 180.817 117.248C174.545 118.144 170.065 118.144 164.561 116.864C162.897 116.48 163.025 113.92 164.561 114.432C167.121 115.328 169.297 115.84 171.601 115.968C173.649 104.96 174.673 96.64 174.673 90.496C174.673 80.256 168.913 73.856 159.185 73.856C148.177 73.856 143.825 77.568 143.825 81.536C143.825 88.192 149.713 95.232 149.713 103.168C149.713 111.104 143.057 114.56 143.057 121.088C143.057 127.104 153.553 130.304 163.281 130.304C167.761 130.304 172.113 129.664 175.313 128.256C175.825 128.128 176.337 128.768 175.825 129.152C173.649 130.944 171.089 132.224 168.145 133.12C162.897 140.928 161.745 143.744 161.745 146.56C161.745 151.296 168.273 155.264 177.105 155.264C185.169 155.264 187.345 152.576 188.497 141.824L188.881 136.96Z" fill="#151515"/>
    <path d="M57.077 98.2C55.285 98.2 54.645 96.152 54.645 90.904C54.645 85.656 55.285 83.608 57.077 83.608C58.741 83.608 59.381 85.656 59.381 90.904C59.381 96.152 58.741 98.2 57.077 98.2ZM73.717 106.776C72.181 106.776 71.541 105.624 71.541 102.68C71.541 99.864 72.181 98.712 73.717 98.712C75.253 98.712 75.893 99.864 75.893 102.68C75.893 105.624 75.253 106.776 73.717 106.776ZM68.725 151.704C67.445 151.704 66.549 150.552 66.549 149.272C66.549 147.864 67.445 146.712 68.725 146.712C69.877 146.712 70.773 147.864 70.773 149.272C70.773 150.552 69.877 151.704 68.725 151.704ZM133.453 107.672C132.429 107.672 131.533 105.752 131.533 103.32C131.533 101.016 132.429 99.096 133.453 99.096C134.477 99.096 135.373 101.016 135.373 103.32C135.373 105.752 134.477 107.672 133.453 107.672ZM107.213 108.568C106.189 108.568 105.677 106.904 105.677 103.96C105.677 101.016 106.189 99.352 107.213 99.352C108.237 99.352 108.749 101.016 108.749 103.96C108.749 106.904 108.237 108.568 107.213 108.568ZM170.577 98.2C168.785 98.2 168.145 96.152 168.145 90.904C168.145 85.656 168.785 83.608 170.577 83.608C172.241 83.608 172.881 85.656 172.881 90.904C172.881 96.152 172.241 98.2 170.577 98.2ZM187.217 106.776C185.681 106.776 185.041 105.624 185.041 102.68C185.041 99.864 185.681 98.712 187.217 98.712C188.753 98.712 189.393 99.864 189.393 102.68C189.393 105.624 188.753 106.776 187.217 106.776ZM182.225 151.704C180.945 151.704 180.049 150.552 180.049 149.272C180.049 147.864 180.945 146.712 182.225 146.712C183.377 146.712 184.273 147.864 184.273 149.272C184.273 150.552 183.377 151.704 182.225 151.704Z" fill="white"/>
    <circle cx="112.5" cy="114.5" r="7.5" fill="black"/>
    </svg>
    