<svg width="24" height="22" viewBox="0 0 24 22" fill="none" xmlns="http://www.w3.org/2000/svg">
    <path d="M0.045 17.0201C0.117 16.9041 0.232 16.8961 0.393 16.9981C4.029 19.1081 7.987 20.1641 12.263 20.1641C15.115 20.1641 17.931 19.6311 20.71 18.5691L21.025 18.4291C21.163 18.3691 21.259 18.3291 21.318 18.2991C21.544 18.2111 21.708 18.2531 21.843 18.4291C21.963 18.6031 21.933 18.7651 21.723 18.9091C21.467 19.0991 21.123 19.3191 20.717 19.5631C19.473 20.3061 18.077 20.8791 16.532 21.2891C12.9132 22.2667 9.07699 22.0645 5.581 20.7121C3.58479 19.93 1.74552 18.7952 0.151 17.3621C0.051 17.2881 0 17.2121 0 17.1421C0 17.0951 0.021 17.0521 0.051 17.0121L0.045 17.0201ZM6.61 10.8021C6.61 9.79705 6.857 8.93905 7.353 8.22505C7.848 7.51505 8.523 6.97505 9.393 6.61005C10.189 6.27505 11.149 6.03505 12.305 5.89005C12.695 5.84405 13.338 5.78705 14.225 5.71605V5.34605C14.225 4.41605 14.12 3.78805 13.925 3.47105C13.623 3.04105 13.145 2.82105 12.485 2.82105H12.303C11.823 2.86705 11.407 3.01705 11.057 3.28105C10.707 3.55105 10.482 3.91105 10.382 4.37705C10.322 4.67705 10.176 4.84205 9.947 4.88705L7.427 4.57205C7.179 4.51205 7.055 4.39205 7.055 4.18205C7.055 4.13605 7.062 4.09205 7.077 4.03205C7.324 2.74205 7.932 1.78205 8.897 1.15205C9.873 0.536051 10.997 0.177051 12.287 0.102051H12.827C14.477 0.102051 15.784 0.536051 16.715 1.39205C16.85 1.54205 16.985 1.69205 17.12 1.87205C17.24 2.03705 17.344 2.18605 17.403 2.32205C17.478 2.45605 17.553 2.65205 17.598 2.89205C17.658 3.14605 17.703 3.31205 17.733 3.40205C17.763 3.50605 17.795 3.70205 17.809 4.01705C17.819 4.33005 17.829 4.51005 17.829 4.57005V9.85005C17.829 10.2261 17.889 10.5701 17.994 10.8861C18.099 11.199 18.204 11.4261 18.309 11.5601L18.819 12.2341C18.909 12.3701 18.955 12.4901 18.955 12.5941C18.955 12.7141 18.895 12.8201 18.775 12.9081C17.575 13.9581 16.915 14.5281 16.812 14.6181C16.647 14.7531 16.437 14.7681 16.182 14.6631C15.997 14.5083 15.8213 14.3427 15.656 14.1671L15.346 13.8201C15.2364 13.683 15.1307 13.543 15.029 13.4001L14.729 12.9651C13.919 13.8511 13.126 14.4051 12.329 14.6301C11.835 14.7801 11.236 14.8571 10.499 14.8571C9.389 14.8571 8.459 14.5141 7.739 13.8231C7.019 13.1331 6.659 12.1581 6.659 10.8831L6.609 10.8071L6.61 10.8021ZM10.363 10.3641C10.363 10.9301 10.503 11.3841 10.788 11.7281C11.073 12.0681 11.463 12.2401 11.943 12.2401C11.988 12.2401 12.049 12.2331 12.138 12.2201C12.228 12.2041 12.272 12.1971 12.304 12.1971C12.918 12.0371 13.384 11.6441 13.728 11.0191C13.893 10.7391 14.013 10.4391 14.088 10.1091C14.178 9.78905 14.208 9.51905 14.223 9.30905C14.238 9.11405 14.238 8.76905 14.238 8.30405V7.76405C13.398 7.76405 12.754 7.82405 12.318 7.94405C11.043 8.30405 10.398 9.11405 10.398 10.3741L10.363 10.3541V10.3641ZM19.525 17.3911C19.555 17.3311 19.6 17.2811 19.657 17.2211C20.019 16.9781 20.371 16.8111 20.707 16.7211C21.2349 16.587 21.775 16.5066 22.319 16.4811C22.459 16.4691 22.599 16.4811 22.729 16.5111C23.379 16.5711 23.779 16.6791 23.901 16.8411C23.964 16.9311 24 17.0691 24 17.2311V17.3811C24 17.8911 23.851 18.4911 23.576 19.1811C23.298 19.8711 22.912 20.4291 22.42 20.8611C22.347 20.9211 22.28 20.9511 22.223 20.9511C22.193 20.9511 22.163 20.951 22.133 20.9391C22.043 20.8951 22.026 20.8191 22.069 20.6991C22.609 19.4391 22.875 18.5561 22.875 18.0591C22.875 17.9091 22.845 17.7891 22.788 17.7151C22.643 17.5491 22.238 17.4581 21.564 17.4581C21.321 17.4581 21.031 17.4741 20.694 17.5041C20.331 17.5491 19.994 17.5941 19.694 17.6391C19.604 17.6391 19.546 17.6251 19.514 17.5951C19.484 17.5651 19.478 17.5481 19.494 17.5181C19.494 17.5011 19.5 17.4881 19.514 17.4551V17.3951L19.525 17.3911Z" fill="#565656"/>
    </svg>
    