<svg width="24" height="18" viewBox="0 0 24 18" fill="none" xmlns="http://www.w3.org/2000/svg">
    <path d="M13.983 8.07792H16.102C16.1512 8.07792 16.1983 8.05846 16.2332 8.02379C16.268 7.98913 16.2878 7.94207 16.288 7.89292V6.00592C16.288 5.95659 16.2684 5.90928 16.2335 5.87439C16.1987 5.83951 16.1513 5.81992 16.102 5.81992H13.983C13.934 5.81992 13.8869 5.83941 13.8522 5.8741C13.8175 5.9088 13.798 5.95585 13.798 6.00492V7.89292C13.798 7.99492 13.881 8.07792 13.983 8.07792ZM11.029 2.64792H13.147C13.1963 2.64792 13.2437 2.62832 13.2785 2.59344C13.3134 2.55856 13.333 2.51125 13.333 2.46192V0.573916C13.3328 0.524759 13.313 0.477706 13.2782 0.44304C13.2433 0.408374 13.1962 0.388915 13.147 0.388916H11.029C10.98 0.388916 10.9329 0.408407 10.8982 0.443101C10.8635 0.477796 10.844 0.524851 10.844 0.573916V2.46192C10.844 2.56392 10.926 2.64792 11.029 2.64792ZM11.029 5.36292H13.147C13.1963 5.36265 13.2434 5.34297 13.2782 5.30815C13.3131 5.27332 13.3328 5.22617 13.333 5.17692V3.28992C13.3328 3.24076 13.313 3.19371 13.2782 3.15904C13.2433 3.12437 13.1962 3.10492 13.147 3.10492H11.029C10.98 3.10492 10.9329 3.12441 10.8982 3.1591C10.8635 3.1938 10.844 3.24085 10.844 3.28992V5.17692C10.844 5.27892 10.926 5.36192 11.029 5.36292ZM8.09902 5.36292H10.219C10.268 5.36239 10.3148 5.34256 10.3492 5.30774C10.3837 5.27291 10.403 5.2259 10.403 5.17692V3.28992C10.403 3.24085 10.3835 3.1938 10.3488 3.1591C10.3141 3.12441 10.2671 3.10492 10.218 3.10492H8.10002C8.05095 3.10492 8.0039 3.12441 7.9692 3.1591C7.93451 3.1938 7.91502 3.24085 7.91502 3.28992V5.17692C7.91502 5.27892 7.99802 5.36192 8.10002 5.36292M5.13602 5.36292H7.25502C7.30417 5.36265 7.35123 5.34294 7.38589 5.30809C7.42056 5.27323 7.44002 5.22607 7.44002 5.17692V3.28992C7.44002 3.24085 7.42053 3.1938 7.38583 3.1591C7.35114 3.12441 7.30408 3.10492 7.25502 3.10492H5.13602C5.08686 3.10492 5.0397 3.12437 5.00485 3.15904C4.96999 3.19371 4.95028 3.24076 4.95002 3.28992V5.17692C4.95002 5.27892 5.03402 5.36192 5.13602 5.36292ZM11.029 8.07792H13.147C13.1962 8.07792 13.2433 8.05846 13.2782 8.02379C13.313 7.98913 13.3328 7.94207 13.333 7.89292V6.00592C13.333 5.95659 13.3134 5.90928 13.2785 5.87439C13.2437 5.83951 13.1963 5.81992 13.147 5.81992H11.029C10.98 5.81992 10.9329 5.83941 10.8982 5.8741C10.8635 5.9088 10.844 5.95585 10.844 6.00492V7.89292C10.844 7.99492 10.926 8.07792 11.029 8.07792ZM8.09902 8.07792H10.219C10.2679 8.07765 10.3147 8.05804 10.3492 8.02338C10.3837 7.98871 10.403 7.94181 10.403 7.89292V6.00592C10.4031 5.98162 10.3985 5.95754 10.3893 5.93504C10.3801 5.91255 10.3666 5.89208 10.3495 5.87481C10.3325 5.85754 10.3121 5.8438 10.2897 5.83438C10.2673 5.82496 10.2433 5.82005 10.219 5.81992H8.09902C8.05013 5.82018 8.00333 5.83979 7.96885 5.87445C7.93437 5.90912 7.91502 5.95602 7.91502 6.00492V7.89292C7.91502 7.99492 7.99802 8.07792 8.10002 8.07792M5.13602 8.07792H7.25502C7.30408 8.07792 7.35114 8.05843 7.38583 8.02373C7.42053 7.98904 7.44002 7.94198 7.44002 7.89292V6.00592C7.44015 5.98162 7.43549 5.95754 7.42632 5.93504C7.41714 5.91255 7.40363 5.89208 7.38654 5.87481C7.36945 5.85754 7.34913 5.8438 7.32674 5.83438C7.30434 5.82496 7.28031 5.82005 7.25602 5.81992H5.13602C5.08669 5.81992 5.03938 5.83951 5.0045 5.87439C4.96961 5.90928 4.95002 5.95659 4.95002 6.00592V7.89292C4.95002 7.99492 5.03402 8.07792 5.13602 8.07792ZM2.21602 8.07792H4.33602C4.38491 8.07765 4.43171 8.05804 4.46619 8.02338C4.50066 7.98871 4.52002 7.94181 4.52002 7.89292V6.00592C4.52015 5.98162 4.51549 5.95754 4.50632 5.93504C4.49714 5.91255 4.48363 5.89208 4.46654 5.87481C4.44945 5.85754 4.42913 5.8438 4.40674 5.83438C4.38434 5.82496 4.36031 5.82005 4.33602 5.81992H2.21602C2.16713 5.82018 2.12033 5.83979 2.08585 5.87445C2.05137 5.90912 2.03202 5.95602 2.03202 6.00492V7.89292C2.03202 7.99492 2.11302 8.07792 2.21602 8.07792ZM23.763 6.88992C23.698 6.83892 23.091 6.37992 21.809 6.37992C21.471 6.38092 21.133 6.40992 20.799 6.46692C20.551 4.76692 19.146 3.93692 19.083 3.90092L18.739 3.70192L18.513 4.02892C18.229 4.46692 18.023 4.95092 17.901 5.45892C17.671 6.42892 17.811 7.34092 18.304 8.11992C17.709 8.45192 16.754 8.53292 16.56 8.53992H0.751017C0.552531 8.54018 0.362221 8.61901 0.221683 8.75917C0.0811454 8.89933 0.00180974 9.08943 0.00101703 9.28792C-0.0175013 10.6728 0.217012 12.0493 0.693017 13.3499C1.23802 14.7779 2.04802 15.8299 3.10302 16.4739C4.28302 17.1969 6.20302 17.6109 8.37802 17.6109C9.36102 17.6139 10.341 17.5249 11.308 17.3449C12.6509 17.0982 13.943 16.6288 15.131 15.9559C16.111 15.3889 16.991 14.6679 17.741 13.8199C18.993 12.4019 19.739 10.8229 20.294 9.41992H20.515C21.887 9.41992 22.73 8.87092 23.195 8.41092C23.504 8.11792 23.745 7.76092 23.902 7.36492L24 7.07692L23.763 6.88992Z" fill="#565656"/>
    </svg>
    