<svg width="22" height="24" viewBox="0 0 22 24" fill="none" xmlns="http://www.w3.org/2000/svg">
    <path d="M1.75239 23.9998H0.777389C0.752284 23.9348 0.728942 23.8691 0.707389 23.8028C0.492389 23.1368 0.113389 22.3128 0.0153892 21.6488C-0.130611 20.6648 0.795389 20.6098 1.38939 20.1838C2.30439 19.5238 3.02439 19.1588 4.01639 18.5638C4.31139 18.3848 5.19839 17.9398 5.29739 17.7348C5.49839 17.3268 4.95239 16.7528 4.80739 16.4348C4.58239 15.9278 4.46239 15.4978 4.43139 14.9998C3.60739 14.8698 2.97639 14.3728 2.58739 13.8148C1.95739 12.8898 1.52139 11.1798 2.06239 9.87881C2.10739 9.77581 2.31639 9.57381 2.34739 9.41581C2.40739 9.10781 2.24239 8.69581 2.22739 8.36781C2.16739 6.67581 2.51139 5.21781 3.65239 4.70781C4.11539 2.86781 5.76539 2.25481 7.32539 1.34081C7.90539 0.998813 8.54939 0.778813 9.21539 0.533813C11.5874 -0.343187 15.2424 -0.178187 17.2094 1.31681C18.0454 1.94981 19.3854 3.28681 19.8654 4.25581C21.1274 6.81081 21.0354 11.0808 20.1524 14.1898C20.0324 14.6108 19.8624 15.2218 19.6194 15.7228C19.4514 16.0728 18.9304 16.7728 18.9944 17.0828C19.0584 17.3968 20.1844 18.2528 20.4264 18.4778C20.8604 18.8998 21.6864 19.4528 21.7504 19.9778C21.8204 20.5348 21.5024 21.3138 21.3404 21.8528C21.1234 22.5738 20.9044 23.2938 20.6864 23.9838H1.75039L1.75239 23.9998ZM12.8564 20.4598C12.3114 20.1598 11.4954 19.8378 10.7914 19.7028C9.92139 19.5388 10.0114 20.8908 10.0414 21.6968C10.0714 22.3398 10.4014 23.0128 10.5514 23.4408C10.6274 23.6378 10.6414 23.8508 10.8074 23.8898C11.1074 23.9578 12.0974 23.5638 12.3824 23.4108C12.9824 23.0828 13.4464 22.5668 13.9564 22.2218C13.9724 22.0518 13.9724 21.8818 13.9864 21.7138C13.6456 21.5438 13.2721 21.4493 12.8914 21.4368C13.2054 21.2868 13.6414 21.2868 13.9264 21.1048L13.9424 20.9118C13.4464 20.8818 13.2524 20.6578 12.9214 20.4758L12.8564 20.4598ZM20.3104 23.3948C20.4951 22.8191 20.6503 22.2343 20.7754 21.6428C20.8354 21.3558 20.9904 20.7248 20.9534 20.4668C20.8944 20.0078 20.2694 19.6678 19.9494 19.3808C19.3654 18.8558 18.9994 18.4058 18.3894 17.9118C18.1404 18.2868 17.6094 18.5268 17.4064 18.8258C18.8534 18.1368 19.1164 21.4508 18.5474 22.5158C18.6374 22.8448 18.9384 22.9658 19.0614 23.2508L18.9754 23.4168H20.2654C20.2784 23.4168 20.2954 23.4168 20.3094 23.4308L20.3104 23.3948ZM13.6764 23.3828C13.6264 23.3088 13.5764 23.2478 13.5264 23.1738L13.2254 23.3688H13.6754L13.6764 23.3828ZM16.4464 23.3828C16.4544 23.1738 16.4644 22.9788 16.4764 22.7848C15.9464 22.8138 15.6514 22.3048 15.2804 22.2578C14.9564 22.2128 14.6804 22.6188 14.2604 22.4528C14.1654 22.5578 14.0774 22.6798 13.9764 22.7688C14.1304 22.9488 14.2714 23.1438 14.4004 23.3528H15.2154C15.2294 23.1888 15.3504 23.0678 15.5154 23.0678C15.6804 23.0678 15.7994 23.1888 15.7994 23.3378H16.4594L16.4464 23.3828ZM18.5624 23.3828C18.2484 22.9038 17.6154 22.4848 16.8824 22.8278L16.8524 23.3688H18.5624V23.3828ZM10.0524 23.3828L9.94839 23.0388C9.72339 22.3188 9.58839 21.7788 9.54339 21.3588C8.62939 20.9228 7.66839 20.4888 6.88939 19.9328C6.73939 19.8278 5.78039 18.5828 5.65939 18.6278C3.92039 19.3038 2.30039 20.4878 0.845389 21.6118C1.10139 22.1688 1.32539 22.7528 1.53539 23.3518H10.0404L10.0524 23.3828ZM18.3174 21.2698C18.2884 20.7578 18.1534 19.7098 17.8374 19.5298C17.1774 19.1398 15.9914 20.3098 15.4974 20.4728C15.5424 20.6228 15.6324 20.7438 15.6474 20.9528C15.9324 20.8788 16.2924 20.9238 16.5454 21.0448C16.2464 21.0748 15.9164 21.0748 15.7214 21.2088C15.6474 21.4038 15.7374 21.6888 15.6924 21.9728C16.3824 22.1698 17.1924 22.2758 18.0774 22.3048C18.2414 22.0778 18.3024 21.6598 18.2884 21.2228L18.3174 21.2698ZM14.2374 20.9098C14.1934 21.2848 14.2834 21.4198 14.3574 21.8528C15.6174 22.2438 15.3914 20.1128 14.2224 20.8938L14.2374 20.9098ZM7.64039 19.4998C7.19039 19.9568 8.91039 20.5818 9.45439 20.6148C9.45439 20.3248 9.61939 20.0508 9.58939 19.8448C8.93939 19.7268 8.08739 19.8028 7.64439 19.4978L7.64039 19.4998ZM13.2054 19.7148C13.2054 19.7578 13.1444 19.7448 13.1374 19.7788C13.7174 20.2298 14.1514 20.3238 14.9394 20.2888C15.2934 20.0268 15.6094 19.7258 15.9824 19.4818C15.1274 19.5558 14.0514 20.0888 13.2084 19.7118L13.2054 19.7148ZM16.6254 1.98881C15.0194 1.08281 12.2754 0.397813 10.5494 1.25781C9.16939 1.94981 7.27939 3.09781 6.65039 4.54981C7.25039 5.95181 6.48439 7.23581 6.42439 8.65881C6.40639 9.41581 6.78439 10.0788 6.81539 10.9008C6.61539 11.2388 5.99039 11.2808 5.55539 11.2568C5.40939 10.5278 5.15539 9.70781 4.40039 9.62681C3.33639 9.51081 2.55539 10.3908 2.51039 11.3098C2.45039 12.3898 3.34339 14.1738 4.59539 14.0548C5.08339 14.0088 5.20339 13.5148 5.73439 13.5148C6.01939 14.0848 5.28939 14.2648 5.21139 14.6688C5.19539 14.7738 5.27139 15.1798 5.31539 15.3738C5.54839 16.3178 6.05939 17.5338 6.56039 18.2538C7.19539 19.1538 8.44439 19.3048 9.78939 19.3948C10.0294 18.8698 10.9144 18.9148 11.4954 19.0488C10.8044 18.7788 10.1594 18.1038 9.62039 17.5198C9.00539 16.8438 8.39039 16.1098 8.35939 15.2398C9.51439 16.8438 10.4594 18.2398 12.5594 18.9438C14.1494 19.4688 16.0094 18.6898 17.2234 17.8348C17.7334 17.4758 18.0344 16.9048 18.3934 16.3958C19.7434 14.4598 20.3734 11.6858 20.2394 9.00181C20.1794 7.89081 20.1794 6.78081 19.8034 6.04681C19.4144 5.26581 18.1084 4.57581 17.3284 5.26581C17.1784 4.50181 17.9584 4.03581 18.8734 4.30581C18.2134 3.45181 17.5374 2.44781 16.6074 1.92181L16.6254 1.98881ZM12.4604 14.8958C13.0754 16.4398 15.1844 16.2588 16.9654 16.2188C16.8814 16.4128 16.7094 16.6538 16.5004 16.7338C15.9304 16.9658 14.3554 17.1418 13.5634 16.7218C13.0574 16.4518 12.7394 15.8488 12.4614 15.4948C12.3244 15.3228 11.6664 14.8868 12.4494 14.8858L12.4604 14.8958ZM12.6244 14.0258C13.5174 14.4898 15.1444 14.5428 16.3554 14.5058C16.4214 14.7728 16.4214 15.0988 16.4234 15.4188C14.8734 15.4988 13.0374 15.1148 12.6294 14.0238H12.6244V14.0258ZM19.2994 13.4398C18.8264 14.3398 18.1544 15.3368 16.7604 15.3678C16.7374 15.0838 16.7154 14.6328 16.7604 14.4638C17.8244 14.3608 18.4874 13.8178 19.3034 13.4468L19.2994 13.4398ZM18.6504 12.7728C17.6304 13.4328 16.4964 14.1478 14.8264 13.9828C14.4754 13.6728 14.3414 12.9828 14.6864 12.5248C14.8674 12.8378 14.7464 13.4098 15.2564 13.4948C16.2004 13.6598 17.2944 12.9158 17.9864 12.6548C18.4064 11.9418 17.9404 11.6788 17.5664 11.2218C16.7844 10.2918 15.7364 9.12181 15.7644 7.71181C16.0784 7.48781 16.1104 8.05781 16.1554 8.16181C16.5594 9.12181 17.5794 10.3368 18.3294 11.1618C18.5094 11.3718 18.8094 11.5518 18.8394 11.6858C18.9314 12.0758 18.5854 12.5398 18.6304 12.7958L18.6504 12.7728ZM5.21139 12.0978C4.89739 11.9138 4.81839 11.1078 4.44339 11.0878C3.90839 11.0578 4.00539 12.1378 4.00739 12.7678C3.63739 12.4378 3.57239 11.4028 3.84339 10.8778C3.53539 10.7278 3.39839 11.0418 3.22539 11.1618C3.44539 9.57181 5.56539 10.4278 5.21539 12.1218L5.21139 12.0978ZM3.59339 5.99481C2.90839 6.75081 3.05339 8.16881 3.13439 9.18281C4.37839 8.39781 6.03239 9.24281 6.01739 10.5768C6.61239 10.5608 6.24039 9.83281 6.13239 9.36181C5.77939 7.83381 6.72439 6.17481 6.17339 4.77181C5.10939 4.85581 4.23439 5.29181 3.59539 5.98681L3.59339 5.99481ZM12.7134 7.10781C13.0204 7.66981 13.1174 8.25581 13.5534 8.67781C13.7484 8.86781 14.1274 9.10181 13.9404 9.62781C13.8954 9.74881 13.5754 10.0188 13.3894 10.0778C12.7154 10.2728 11.1354 10.1078 11.6684 9.26781C12.2314 9.28281 12.9824 9.62781 13.4004 9.22281C13.0864 8.69881 12.5154 7.69281 12.7264 7.09281L12.7134 7.10781ZM18.9114 7.09481H18.9794C19.3094 7.76281 19.5794 8.46981 19.9834 9.05981C19.7134 9.68781 17.9304 10.2498 17.9604 9.11681C18.3504 8.94681 19.0104 9.08181 19.3554 8.86681C19.1624 8.31081 18.8754 7.86081 18.9214 7.09581L18.9114 7.09481ZM11.9844 5.47781C10.5624 5.14781 9.85339 6.06981 9.42439 7.03081C9.04039 6.93681 9.19339 6.41581 9.28939 6.14781C9.54439 5.44681 10.5694 4.51481 11.4084 4.64181C11.7674 4.69881 12.2564 5.02781 11.9844 5.47581V5.47781ZM8.52239 1.59281C6.96239 2.03281 4.96239 3.16681 4.32239 4.56681C4.81739 4.49681 5.16239 4.24581 5.65239 4.21581C5.83839 4.19981 6.08039 4.28981 6.29339 4.23081C6.71739 4.12681 7.07339 3.16581 7.39539 2.82081C7.70539 2.47581 8.08039 2.32481 8.33539 2.01081C8.50239 1.92081 8.74439 1.93681 8.75539 1.68081C8.68239 1.60581 8.60539 1.54581 8.52339 1.57581L8.52239 1.59281Z" fill="#565656"/>
    </svg>
    