<svg width="24" height="24" viewBox="0 0 24 24" fill="none" xmlns="http://www.w3.org/2000/svg">
    <g clip-path="url(#clip0_664_215)">
    <path d="M11.571 11.513H0C0.000392029 12.1992 0.136113 12.8785 0.399394 13.5122C0.662674 14.1458 1.04834 14.7213 1.53432 15.2057C2.02031 15.6901 2.59705 16.0739 3.23155 16.3351C3.86605 16.5963 4.54584 16.7298 5.232 16.728H7.362V18.785C7.362 20.1678 7.91116 21.4939 8.88873 22.4719C9.8663 23.4498 11.1922 23.9995 12.575 24V12.518C12.575 12.2515 12.4691 11.9958 12.2806 11.8074C12.0922 11.6189 11.8365 11.513 11.57 11.513H11.571ZM17.294 5.757H5.736C5.73627 7.13993 6.28582 8.46613 7.26379 9.44392C8.24177 10.4217 9.56807 10.971 10.951 10.971H13.08V13.029C13.0811 14.4117 13.6309 15.7374 14.6087 16.715C15.5865 17.6927 16.9123 18.2422 18.295 18.243V6.758C18.295 6.49252 18.1895 6.23791 18.0018 6.05019C17.8141 5.86246 17.5595 5.757 17.294 5.757ZM23.013 0H11.455C11.455 1.3831 12.0044 2.70956 12.9824 3.68756C13.9604 4.66556 15.2869 5.215 16.67 5.215H18.799V7.272C18.8001 8.65199 19.348 9.9753 20.3229 10.952C21.2978 11.9288 22.62 12.4793 24 12.483V1.005C24.0011 0.741234 23.898 0.487703 23.7132 0.299513C23.5284 0.111323 23.2767 0.00368685 23.013 0Z" fill="#565656"/>
    </g>
    <defs>
    <clipPath id="clip0_664_215">
    <rect width="24" height="24" fill="white"/>
    </clipPath>
    </defs>
    </svg>
    