<svg width="24" height="24" viewBox="0 0 24 24" fill="none" xmlns="http://www.w3.org/2000/svg">
    <g clip-path="url(#clip0_664_207)">
    <path d="M7.26971 23.896L4.49971 21.124C4.46669 21.0912 4.44049 21.0523 4.4226 21.0094C4.40472 20.9665 4.39551 20.9204 4.39551 20.874C4.39551 20.8275 4.40472 20.7814 4.4226 20.7385C4.44049 20.6956 4.46669 20.6567 4.49971 20.624L7.27171 17.854C7.30444 17.8209 7.34338 17.7947 7.38629 17.7768C7.4292 17.759 7.47522 17.7498 7.52171 17.7498C7.5682 17.7498 7.61422 17.759 7.65713 17.7768C7.70004 17.7947 7.73898 17.8209 7.77171 17.854L10.5437 20.626C10.5767 20.6587 10.6029 20.6976 10.6208 20.7405C10.6387 20.7834 10.6479 20.8295 10.6479 20.876C10.6479 20.9224 10.6387 20.9685 10.6208 21.0114C10.6029 21.0543 10.5767 21.0932 10.5437 21.126L7.77171 23.896C7.73898 23.929 7.70004 23.9552 7.65713 23.9731C7.61422 23.991 7.5682 24.0002 7.52171 24.0002C7.47522 24.0002 7.4292 23.991 7.38629 23.9731C7.34338 23.9552 7.30444 23.929 7.27171 23.896H7.26971ZM11.7497 19.416L8.97771 16.644C8.94499 16.6113 8.91904 16.5725 8.90133 16.5297C8.88363 16.487 8.87451 16.4412 8.87451 16.395C8.87451 16.3487 8.88363 16.3029 8.90133 16.2602C8.91904 16.2175 8.94499 16.1786 8.97771 16.146L11.7497 13.374C11.7824 13.3409 11.8214 13.3147 11.8643 13.2968C11.9072 13.279 11.9532 13.2698 11.9997 13.2698C12.0462 13.2698 12.0922 13.279 12.1351 13.2968C12.178 13.3147 12.217 13.3409 12.2497 13.374L15.0197 16.146C15.0527 16.1787 15.0789 16.2176 15.0968 16.2605C15.1147 16.3034 15.1239 16.3495 15.1239 16.396C15.1239 16.4424 15.1147 16.4885 15.0968 16.5314C15.0789 16.5743 15.0527 16.6132 15.0197 16.646L12.2497 19.416C12.217 19.4488 12.1781 19.4749 12.1353 19.4927C12.0925 19.5105 12.0466 19.5197 12.0002 19.5197C11.9538 19.5197 11.9079 19.5105 11.8651 19.4927C11.8223 19.4749 11.7834 19.4488 11.7507 19.416H11.7497ZM16.2297 14.936L13.4597 12.164C13.427 12.1313 13.401 12.0925 13.3833 12.0497C13.3656 12.007 13.3565 11.9612 13.3565 11.915C13.3565 11.8687 13.3656 11.8229 13.3833 11.7802C13.401 11.7375 13.427 11.6986 13.4597 11.666L16.2307 8.89396C16.2634 8.86094 16.3024 8.83473 16.3453 8.81685C16.3882 8.79896 16.4342 8.78976 16.4807 8.78976C16.5272 8.78976 16.5732 8.79896 16.6161 8.81685C16.659 8.83473 16.698 8.86094 16.7307 8.89396L19.5007 11.666C19.5334 11.6986 19.5594 11.7375 19.5771 11.7802C19.5948 11.8229 19.6039 11.8687 19.6039 11.915C19.6039 11.9612 19.5948 12.007 19.5771 12.0497C19.5594 12.0925 19.5334 12.1313 19.5007 12.164L16.7287 14.936C16.696 14.969 16.657 14.9952 16.6141 15.0131C16.5712 15.031 16.5252 15.0402 16.4787 15.0402C16.4322 15.0402 16.3862 15.031 16.3433 15.0131C16.3004 14.9952 16.2624 14.969 16.2297 14.936ZM7.35371 15.02L4.58171 12.25C4.54884 12.2172 4.52276 12.1784 4.50497 12.1356C4.48717 12.0927 4.47801 12.0468 4.47801 12.0005C4.47801 11.9541 4.48717 11.9082 4.50497 11.8654C4.52276 11.8225 4.54884 11.7837 4.58171 11.751L7.35371 8.97796C7.38644 8.94494 7.42538 8.91873 7.46829 8.90085C7.5112 8.88296 7.55722 8.87376 7.60371 8.87376C7.6502 8.87376 7.69622 8.88296 7.73913 8.90085C7.78204 8.91873 7.82098 8.94494 7.85371 8.97796L10.6257 11.75C10.6584 11.7826 10.6844 11.8215 10.7021 11.8642C10.7198 11.9069 10.7289 11.9527 10.7289 11.999C10.7289 12.0452 10.7198 12.091 10.7021 12.1337C10.6844 12.1765 10.6584 12.2153 10.6257 12.248L7.85371 15.022C7.82098 15.055 7.78204 15.0812 7.73913 15.0991C7.69622 15.117 7.6502 15.1262 7.60371 15.1262C7.55722 15.1262 7.5112 15.117 7.46829 15.0991C7.42538 15.0812 7.38644 15.055 7.35371 15.022V15.02ZM11.8337 10.54L9.06171 7.76996C9.02869 7.73723 9.00249 7.69829 8.9846 7.65538C8.96672 7.61247 8.95751 7.56644 8.95751 7.51996C8.95751 7.47347 8.96672 7.42744 8.9846 7.38453C9.00249 7.34163 9.02869 7.30268 9.06171 7.26996L11.8337 4.49796C11.8664 4.46494 11.9054 4.43873 11.9483 4.42085C11.9912 4.40296 12.0372 4.39376 12.0837 4.39376C12.1302 4.39376 12.1762 4.40296 12.2191 4.42085C12.262 4.43873 12.301 4.46494 12.3337 4.49796L15.1037 7.26996C15.1364 7.30265 15.1624 7.34146 15.1801 7.38419C15.1978 7.42691 15.2069 7.47271 15.2069 7.51896C15.2069 7.56521 15.1978 7.611 15.1801 7.65373C15.1624 7.69645 15.1364 7.73527 15.1037 7.76796L12.3337 10.54C12.301 10.5728 12.2621 10.5989 12.2193 10.6167C12.1765 10.6345 12.1306 10.6437 12.0842 10.6437C12.0378 10.6437 11.9919 10.6345 11.9491 10.6167C11.9063 10.5989 11.8674 10.5728 11.8347 10.54V10.538L11.8337 10.54ZM7.43971 6.14996L4.66571 3.36996C4.63269 3.33723 4.60649 3.29829 4.5886 3.25538C4.57072 3.21247 4.56151 3.16644 4.56151 3.11996C4.56151 3.07347 4.57072 3.02744 4.5886 2.98453C4.60649 2.94163 4.63269 2.90268 4.66571 2.86996L7.43971 0.103958C7.47244 0.070941 7.51138 0.0447338 7.55429 0.0268489C7.5972 0.00896409 7.64322 -0.000244141 7.68971 -0.000244141C7.7362 -0.000244141 7.78222 0.00896409 7.82513 0.0268489C7.86804 0.0447338 7.90698 0.070941 7.93971 0.103958L10.7117 2.87596C10.7447 2.90868 10.7709 2.94762 10.7888 2.99053C10.8067 3.03344 10.8159 3.07947 10.8159 3.12596C10.8159 3.17244 10.8067 3.21847 10.7888 3.26138C10.7709 3.30429 10.7447 3.34323 10.7117 3.37596L7.93771 6.14196C7.90498 6.17497 7.86604 6.20118 7.82313 6.21907C7.78022 6.23695 7.7342 6.24616 7.68771 6.24616C7.64122 6.24616 7.5952 6.23695 7.55229 6.21907C7.50938 6.20118 7.47044 6.17497 7.43771 6.14196L7.43971 6.14796V6.14996Z" fill="#565656"/>
    </g>
    <defs>
    <clipPath id="clip0_664_207">
    <rect width="24" height="24" fill="white"/>
    </clipPath>
    </defs>
    </svg>
    