<svg width="25" height="25" viewBox="0 0 25 25" fill="none" xmlns="http://www.w3.org/2000/svg">
    <g clip-path="url(#clip0_951_3789)">
    <path d="M25 0H0V25H25V0Z" fill="white"/>
    <mask id="mask0_951_3789" style="mask-type:luminance" maskUnits="userSpaceOnUse" x="1" y="1" width="23" height="23">
    <path d="M1.99844 8.60059H1.39844V9.20059H1.99844V8.60059Z" fill="white"/>
    <path d="M1.99844 9.2002H1.39844V9.8002H1.99844V9.2002Z" fill="white"/>
    <path d="M1.99844 10.4004H1.39844V11.0004H1.99844V10.4004Z" fill="white"/>
    <path d="M1.99844 11H1.39844V11.6H1.99844V11Z" fill="white"/>
    <path d="M1.99844 14H1.39844V14.6H1.99844V14Z" fill="white"/>
    <path d="M1.99844 14.6006H1.39844V15.2006H1.99844V14.6006Z" fill="white"/>
    <path d="M1.99844 15.2002H1.39844V15.8002H1.99844V15.2002Z" fill="white"/>
    <path d="M1.99844 16.4004H1.39844V17.0004H1.99844V16.4004Z" fill="white"/>
    <path d="M2.6 6.2002H2V6.8002H2.6V6.2002Z" fill="white"/>
    <path d="M2.6 6.80078H2V7.40078H2.6V6.80078Z" fill="white"/>
    <path d="M2.6 8H2V8.6H2.6V8Z" fill="white"/>
    <path d="M2.6 8.60059H2V9.20059H2.6V8.60059Z" fill="white"/>
    <path d="M2.6 9.2002H2V9.8002H2.6V9.2002Z" fill="white"/>
    <path d="M2.6 9.80078H2V10.4008H2.6V9.80078Z" fill="white"/>
    <path d="M2.6 14H2V14.6H2.6V14Z" fill="white"/>
    <path d="M2.6 14.6006H2V15.2006H2.6V14.6006Z" fill="white"/>
    <path d="M2.6 15.2002H2V15.8002H2.6V15.2002Z" fill="white"/>
    <path d="M2.6 15.8008H2V16.4008H2.6V15.8008Z" fill="white"/>
    <path d="M2.6 17H2V17.6H2.6V17Z" fill="white"/>
    <path d="M2.6 18.2002H2V18.8002H2.6V18.2002Z" fill="white"/>
    <path d="M3.19766 6.80078H2.59766V7.40078H3.19766V6.80078Z" fill="white"/>
    <path d="M3.19766 8H2.59766V8.6H3.19766V8Z" fill="white"/>
    <path d="M3.19766 9.80078H2.59766V10.4008H3.19766V9.80078Z" fill="white"/>
    <path d="M3.19766 10.4004H2.59766V11.0004H3.19766V10.4004Z" fill="white"/>
    <path d="M3.19766 11H2.59766V11.6H3.19766V11Z" fill="white"/>
    <path d="M3.19766 11.6006H2.59766V12.2006H3.19766V11.6006Z" fill="white"/>
    <path d="M3.19766 12.8008H2.59766V13.4008H3.19766V12.8008Z" fill="white"/>
    <path d="M3.19766 14H2.59766V14.6H3.19766V14Z" fill="white"/>
    <path d="M3.19766 15.2002H2.59766V15.8002H3.19766V15.2002Z" fill="white"/>
    <path d="M3.19766 16.4004H2.59766V17.0004H3.19766V16.4004Z" fill="white"/>
    <path d="M3.79922 6.2002H3.19922V6.8002H3.79922V6.2002Z" fill="white"/>
    <path d="M3.79922 6.80078H3.19922V7.40078H3.79922V6.80078Z" fill="white"/>
    <path d="M3.79922 7.40039H3.19922V8.00039H3.79922V7.40039Z" fill="white"/>
    <path d="M3.79922 8H3.19922V8.6H3.79922V8Z" fill="white"/>
    <path d="M3.79922 9.80078H3.19922V10.4008H3.79922V9.80078Z" fill="white"/>
    <path d="M3.79922 11H3.19922V11.6H3.79922V11Z" fill="white"/>
    <path d="M3.79922 12.2002H3.19922V12.8002H3.79922V12.2002Z" fill="white"/>
    <path d="M3.79922 13.4004H3.19922V14.0004H3.79922V13.4004Z" fill="white"/>
    <path d="M3.79922 14H3.19922V14.6H3.79922V14Z" fill="white"/>
    <path d="M3.79922 15.2002H3.19922V15.8002H3.79922V15.2002Z" fill="white"/>
    <path d="M3.79922 16.4004H3.19922V17.0004H3.79922V16.4004Z" fill="white"/>
    <path d="M3.79922 17.6006H3.19922V18.2006H3.79922V17.6006Z" fill="white"/>
    <path d="M3.79922 18.2002H3.19922V18.8002H3.79922V18.2002Z" fill="white"/>
    <path d="M4.39687 6.2002H3.79688V6.8002H4.39687V6.2002Z" fill="white"/>
    <path d="M4.39687 8H3.79688V8.6H4.39687V8Z" fill="white"/>
    <path d="M4.39687 8.60059H3.79688V9.20059H4.39687V8.60059Z" fill="white"/>
    <path d="M4.39687 10.4004H3.79688V11.0004H4.39687V10.4004Z" fill="white"/>
    <path d="M4.39687 11.6006H3.79688V12.2006H4.39687V11.6006Z" fill="white"/>
    <path d="M4.39687 12.2002H3.79688V12.8002H4.39687V12.2002Z" fill="white"/>
    <path d="M4.39687 12.8008H3.79688V13.4008H4.39687V12.8008Z" fill="white"/>
    <path d="M4.39687 16.4004H3.79688V17.0004H4.39687V16.4004Z" fill="white"/>
    <path d="M4.39687 17H3.79688V17.6H4.39687V17Z" fill="white"/>
    <path d="M4.99844 10.4004H4.39844V11.0004H4.99844V10.4004Z" fill="white"/>
    <path d="M4.99844 12.2002H4.39844V12.8002H4.99844V12.2002Z" fill="white"/>
    <path d="M4.99844 12.8008H4.39844V13.4008H4.99844V12.8008Z" fill="white"/>
    <path d="M4.99844 14.6006H4.39844V15.2006H4.99844V14.6006Z" fill="white"/>
    <path d="M4.99844 15.2002H4.39844V15.8002H4.99844V15.2002Z" fill="white"/>
    <path d="M4.99844 16.4004H4.39844V17.0004H4.99844V16.4004Z" fill="white"/>
    <path d="M4.99844 17H4.39844V17.6H4.99844V17Z" fill="white"/>
    <path d="M5.6 6.2002H5V6.8002H5.6V6.2002Z" fill="white"/>
    <path d="M5.6 7.40039H5V8.00039H5.6V7.40039Z" fill="white"/>
    <path d="M5.6 8.60059H5V9.20059H5.6V8.60059Z" fill="white"/>
    <path d="M5.6 9.80078H5V10.4008H5.6V9.80078Z" fill="white"/>
    <path d="M5.6 11H5V11.6H5.6V11Z" fill="white"/>
    <path d="M5.6 12.2002H5V12.8002H5.6V12.2002Z" fill="white"/>
    <path d="M5.6 13.4004H5V14.0004H5.6V13.4004Z" fill="white"/>
    <path d="M5.6 14.6006H5V15.2006H5.6V14.6006Z" fill="white"/>
    <path d="M5.6 15.8008H5V16.4008H5.6V15.8008Z" fill="white"/>
    <path d="M5.6 17H5V17.6H5.6V17Z" fill="white"/>
    <path d="M5.6 18.2002H5V18.8002H5.6V18.2002Z" fill="white"/>
    <path d="M6.19766 6.2002H5.59766V6.8002H6.19766V6.2002Z" fill="white"/>
    <path d="M6.19766 10.4004H5.59766V11.0004H6.19766V10.4004Z" fill="white"/>
    <path d="M6.19766 11.6006H5.59766V12.2006H6.19766V11.6006Z" fill="white"/>
    <path d="M6.19766 13.4004H5.59766V14.0004H6.19766V13.4004Z" fill="white"/>
    <path d="M6.19766 14.6006H5.59766V15.2006H6.19766V14.6006Z" fill="white"/>
    <path d="M6.19766 17H5.59766V17.6H6.19766V17Z" fill="white"/>
    <path d="M6.19766 17.6006H5.59766V18.2006H6.19766V17.6006Z" fill="white"/>
    <path d="M6.19766 18.2002H5.59766V18.8002H6.19766V18.2002Z" fill="white"/>
    <path d="M6.79922 2H6.19922V2.6H6.79922V2Z" fill="white"/>
    <path d="M6.79922 3.2002H6.19922V3.8002H6.79922V3.2002Z" fill="white"/>
    <path d="M6.79922 3.80078H6.19922V4.40078H6.79922V3.80078Z" fill="white"/>
    <path d="M6.79922 4.40039H6.19922V5.00039H6.79922V4.40039Z" fill="white"/>
    <path d="M6.79922 5H6.19922V5.6H6.79922V5Z" fill="white"/>
    <path d="M6.79922 6.2002H6.19922V6.8002H6.79922V6.2002Z" fill="white"/>
    <path d="M6.79922 6.80078H6.19922V7.40078H6.79922V6.80078Z" fill="white"/>
    <path d="M6.79922 7.40039H6.19922V8.00039H6.79922V7.40039Z" fill="white"/>
    <path d="M6.79922 9.2002H6.19922V9.8002H6.79922V9.2002Z" fill="white"/>
    <path d="M6.79922 10.4004H6.19922V11.0004H6.79922V10.4004Z" fill="white"/>
    <path d="M6.79922 11H6.19922V11.6H6.79922V11Z" fill="white"/>
    <path d="M6.79922 11.6006H6.19922V12.2006H6.79922V11.6006Z" fill="white"/>
    <path d="M6.79922 12.2002H6.19922V12.8002H6.79922V12.2002Z" fill="white"/>
    <path d="M6.79922 12.8008H6.19922V13.4008H6.79922V12.8008Z" fill="white"/>
    <path d="M6.79922 15.8008H6.19922V16.4008H6.79922V15.8008Z" fill="white"/>
    <path d="M6.79922 16.4004H6.19922V17.0004H6.79922V16.4004Z" fill="white"/>
    <path d="M6.79922 17H6.19922V17.6H6.79922V17Z" fill="white"/>
    <path d="M6.79922 18.8008H6.19922V19.4008H6.79922V18.8008Z" fill="white"/>
    <path d="M6.79922 19.4004H6.19922V20.0004H6.79922V19.4004Z" fill="white"/>
    <path d="M6.79922 20.6006H6.19922V21.2006H6.79922V20.6006Z" fill="white"/>
    <path d="M6.79922 21.2002H6.19922V21.8002H6.79922V21.2002Z" fill="white"/>
    <path d="M6.79922 22.4004H6.19922V23.0004H6.79922V22.4004Z" fill="white"/>
    <path d="M7.39687 1.40039H6.79688V2.00039H7.39687V1.40039Z" fill="white"/>
    <path d="M7.39687 2.60059H6.79688V3.20059H7.39687V2.60059Z" fill="white"/>
    <path d="M7.39687 3.2002H6.79688V3.8002H7.39687V3.2002Z" fill="white"/>
    <path d="M7.39687 3.80078H6.79688V4.40078H7.39687V3.80078Z" fill="white"/>
    <path d="M7.39687 5.60059H6.79688V6.20059H7.39687V5.60059Z" fill="white"/>
    <path d="M7.39687 7.40039H6.79688V8.00039H7.39687V7.40039Z" fill="white"/>
    <path d="M7.39687 8H6.79688V8.6H7.39687V8Z" fill="white"/>
    <path d="M7.39687 8.60059H6.79688V9.20059H7.39687V8.60059Z" fill="white"/>
    <path d="M7.39687 9.2002H6.79688V9.8002H7.39687V9.2002Z" fill="white"/>
    <path d="M7.39687 9.80078H6.79688V10.4008H7.39687V9.80078Z" fill="white"/>
    <path d="M7.39687 10.4004H6.79688V11.0004H7.39687V10.4004Z" fill="white"/>
    <path d="M7.39687 12.2002H6.79688V12.8002H7.39687V12.2002Z" fill="white"/>
    <path d="M7.39687 14.6006H6.79688V15.2006H7.39687V14.6006Z" fill="white"/>
    <path d="M7.39687 15.2002H6.79688V15.8002H7.39687V15.2002Z" fill="white"/>
    <path d="M7.39687 16.4004H6.79688V17.0004H7.39687V16.4004Z" fill="white"/>
    <path d="M7.39687 17H6.79688V17.6H7.39687V17Z" fill="white"/>
    <path d="M7.39687 18.2002H6.79688V18.8002H7.39687V18.2002Z" fill="white"/>
    <path d="M7.39687 18.8008H6.79688V19.4008H7.39687V18.8008Z" fill="white"/>
    <path d="M7.39687 20H6.79688V20.6H7.39687V20Z" fill="white"/>
    <path d="M7.39687 20.6006H6.79688V21.2006H7.39687V20.6006Z" fill="white"/>
    <path d="M7.39687 21.8008H6.79688V22.4008H7.39687V21.8008Z" fill="white"/>
    <path d="M7.39687 22.4004H6.79688V23.0004H7.39687V22.4004Z" fill="white"/>
    <path d="M7.39687 23H6.79688V23.6H7.39687V23Z" fill="white"/>
    <path d="M7.99844 1.40039H7.39844V2.00039H7.99844V1.40039Z" fill="white"/>
    <path d="M7.99844 2H7.39844V2.6H7.99844V2Z" fill="white"/>
    <path d="M7.99844 2.60059H7.39844V3.20059H7.99844V2.60059Z" fill="white"/>
    <path d="M7.99844 3.2002H7.39844V3.8002H7.99844V3.2002Z" fill="white"/>
    <path d="M7.99844 4.40039H7.39844V5.00039H7.99844V4.40039Z" fill="white"/>
    <path d="M7.99844 5H7.39844V5.6H7.99844V5Z" fill="white"/>
    <path d="M7.99844 5.60059H7.39844V6.20059H7.99844V5.60059Z" fill="white"/>
    <path d="M7.99844 6.2002H7.39844V6.8002H7.99844V6.2002Z" fill="white"/>
    <path d="M7.99844 6.80078H7.39844V7.40078H7.99844V6.80078Z" fill="white"/>
    <path d="M7.99844 9.2002H7.39844V9.8002H7.99844V9.2002Z" fill="white"/>
    <path d="M7.99844 9.80078H7.39844V10.4008H7.99844V9.80078Z" fill="white"/>
    <path d="M7.99844 10.4004H7.39844V11.0004H7.99844V10.4004Z" fill="white"/>
    <path d="M7.99844 11H7.39844V11.6H7.99844V11Z" fill="white"/>
    <path d="M7.99844 12.2002H7.39844V12.8002H7.99844V12.2002Z" fill="white"/>
    <path d="M7.99844 13.4004H7.39844V14.0004H7.99844V13.4004Z" fill="white"/>
    <path d="M7.99844 14.6006H7.39844V15.2006H7.99844V14.6006Z" fill="white"/>
    <path d="M7.99844 15.2002H7.39844V15.8002H7.99844V15.2002Z" fill="white"/>
    <path d="M7.99844 16.4004H7.39844V17.0004H7.99844V16.4004Z" fill="white"/>
    <path d="M7.99844 17.6006H7.39844V18.2006H7.99844V17.6006Z" fill="white"/>
    <path d="M7.99844 18.2002H7.39844V18.8002H7.99844V18.2002Z" fill="white"/>
    <path d="M7.99844 18.8008H7.39844V19.4008H7.99844V18.8008Z" fill="white"/>
    <path d="M7.99844 19.4004H7.39844V20.0004H7.99844V19.4004Z" fill="white"/>
    <path d="M7.99844 21.2002H7.39844V21.8002H7.99844V21.2002Z" fill="white"/>
    <path d="M7.99844 23H7.39844V23.6H7.99844V23Z" fill="white"/>
    <path d="M8.6 1.40039H8V2.00039H8.6V1.40039Z" fill="white"/>
    <path d="M8.6 3.80078H8V4.40078H8.6V3.80078Z" fill="white"/>
    <path d="M8.6 4.40039H8V5.00039H8.6V4.40039Z" fill="white"/>
    <path d="M8.6 6.2002H8V6.8002H8.6V6.2002Z" fill="white"/>
    <path d="M8.6 6.80078H8V7.40078H8.6V6.80078Z" fill="white"/>
    <path d="M8.6 8H8V8.6H8.6V8Z" fill="white"/>
    <path d="M8.6 10.4004H8V11.0004H8.6V10.4004Z" fill="white"/>
    <path d="M8.6 11H8V11.6H8.6V11Z" fill="white"/>
    <path d="M8.6 11.6006H8V12.2006H8.6V11.6006Z" fill="white"/>
    <path d="M8.6 12.2002H8V12.8002H8.6V12.2002Z" fill="white"/>
    <path d="M8.6 12.8008H8V13.4008H8.6V12.8008Z" fill="white"/>
    <path d="M8.6 13.4004H8V14.0004H8.6V13.4004Z" fill="white"/>
    <path d="M8.6 14.6006H8V15.2006H8.6V14.6006Z" fill="white"/>
    <path d="M8.6 17H8V17.6H8.6V17Z" fill="white"/>
    <path d="M8.6 18.2002H8V18.8002H8.6V18.2002Z" fill="white"/>
    <path d="M8.6 18.8008H8V19.4008H8.6V18.8008Z" fill="white"/>
    <path d="M8.6 19.4004H8V20.0004H8.6V19.4004Z" fill="white"/>
    <path d="M8.6 20H8V20.6H8.6V20Z" fill="white"/>
    <path d="M8.6 20.6006H8V21.2006H8.6V20.6006Z" fill="white"/>
    <path d="M8.6 21.2002H8V21.8002H8.6V21.2002Z" fill="white"/>
    <path d="M8.6 21.8008H8V22.4008H8.6V21.8008Z" fill="white"/>
    <path d="M9.19766 2.60059H8.59766V3.20059H9.19766V2.60059Z" fill="white"/>
    <path d="M9.19766 3.2002H8.59766V3.8002H9.19766V3.2002Z" fill="white"/>
    <path d="M9.19766 4.40039H8.59766V5.00039H9.19766V4.40039Z" fill="white"/>
    <path d="M9.19766 5H8.59766V5.6H9.19766V5Z" fill="white"/>
    <path d="M9.19766 5.60059H8.59766V6.20059H9.19766V5.60059Z" fill="white"/>
    <path d="M9.19766 7.40039H8.59766V8.00039H9.19766V7.40039Z" fill="white"/>
    <path d="M9.19766 8.60059H8.59766V9.20059H9.19766V8.60059Z" fill="white"/>
    <path d="M9.19766 9.80078H8.59766V10.4008H9.19766V9.80078Z" fill="white"/>
    <path d="M9.19766 11H8.59766V11.6H9.19766V11Z" fill="white"/>
    <path d="M9.19766 12.2002H8.59766V12.8002H9.19766V12.2002Z" fill="white"/>
    <path d="M9.19766 12.8008H8.59766V13.4008H9.19766V12.8008Z" fill="white"/>
    <path d="M9.19766 15.2002H8.59766V15.8002H9.19766V15.2002Z" fill="white"/>
    <path d="M9.19766 17.6006H8.59766V18.2006H9.19766V17.6006Z" fill="white"/>
    <path d="M9.19766 19.4004H8.59766V20.0004H9.19766V19.4004Z" fill="white"/>
    <path d="M9.19766 21.2002H8.59766V21.8002H9.19766V21.2002Z" fill="white"/>
    <path d="M9.79922 2.60059H9.19922V3.20059H9.79922V2.60059Z" fill="white"/>
    <path d="M9.79922 3.2002H9.19922V3.8002H9.79922V3.2002Z" fill="white"/>
    <path d="M9.79922 3.80078H9.19922V4.40078H9.79922V3.80078Z" fill="white"/>
    <path d="M9.79922 4.40039H9.19922V5.00039H9.79922V4.40039Z" fill="white"/>
    <path d="M9.79922 5.60059H9.19922V6.20059H9.79922V5.60059Z" fill="white"/>
    <path d="M9.79922 7.40039H9.19922V8.00039H9.79922V7.40039Z" fill="white"/>
    <path d="M9.79922 9.2002H9.19922V9.8002H9.79922V9.2002Z" fill="white"/>
    <path d="M9.79922 10.4004H9.19922V11.0004H9.79922V10.4004Z" fill="white"/>
    <path d="M9.79922 11H9.19922V11.6H9.79922V11Z" fill="white"/>
    <path d="M9.79922 11.6006H9.19922V12.2006H9.79922V11.6006Z" fill="white"/>
    <path d="M9.79922 12.2002H9.19922V12.8002H9.79922V12.2002Z" fill="white"/>
    <path d="M9.79922 15.2002H9.19922V15.8002H9.79922V15.2002Z" fill="white"/>
    <path d="M9.79922 16.4004H9.19922V17.0004H9.79922V16.4004Z" fill="white"/>
    <path d="M9.79922 17H9.19922V17.6H9.79922V17Z" fill="white"/>
    <path d="M9.79922 17.6006H9.19922V18.2006H9.79922V17.6006Z" fill="white"/>
    <path d="M9.79922 18.2002H9.19922V18.8002H9.79922V18.2002Z" fill="white"/>
    <path d="M9.79922 18.8008H9.19922V19.4008H9.79922V18.8008Z" fill="white"/>
    <path d="M9.79922 20.6006H9.19922V21.2006H9.79922V20.6006Z" fill="white"/>
    <path d="M9.79922 21.8008H9.19922V22.4008H9.79922V21.8008Z" fill="white"/>
    <path d="M9.79922 22.4004H9.19922V23.0004H9.79922V22.4004Z" fill="white"/>
    <path d="M10.3969 1.40039H9.79688V2.00039H10.3969V1.40039Z" fill="white"/>
    <path d="M10.3969 3.80078H9.79688V4.40078H10.3969V3.80078Z" fill="white"/>
    <path d="M10.3969 5H9.79688V5.6H10.3969V5Z" fill="white"/>
    <path d="M10.3969 7.40039H9.79688V8.00039H10.3969V7.40039Z" fill="white"/>
    <path d="M10.3969 8H9.79688V8.6H10.3969V8Z" fill="white"/>
    <path d="M10.3969 8.60059H9.79688V9.20059H10.3969V8.60059Z" fill="white"/>
    <path d="M10.3969 9.2002H9.79688V9.8002H10.3969V9.2002Z" fill="white"/>
    <path d="M10.3969 10.4004H9.79688V11.0004H10.3969V10.4004Z" fill="white"/>
    <path d="M10.3969 11H9.79688V11.6H10.3969V11Z" fill="white"/>
    <path d="M10.3969 13.4004H9.79688V14.0004H10.3969V13.4004Z" fill="white"/>
    <path d="M10.3969 14H9.79688V14.6H10.3969V14Z" fill="white"/>
    <path d="M10.3969 14.6006H9.79688V15.2006H10.3969V14.6006Z" fill="white"/>
    <path d="M10.3969 15.8008H9.79688V16.4008H10.3969V15.8008Z" fill="white"/>
    <path d="M10.3969 17.6006H9.79688V18.2006H10.3969V17.6006Z" fill="white"/>
    <path d="M10.3969 20H9.79688V20.6H10.3969V20Z" fill="white"/>
    <path d="M10.3969 20.6006H9.79688V21.2006H10.3969V20.6006Z" fill="white"/>
    <path d="M10.3969 21.2002H9.79688V21.8002H10.3969V21.2002Z" fill="white"/>
    <path d="M10.3969 21.8008H9.79688V22.4008H10.3969V21.8008Z" fill="white"/>
    <path d="M10.3969 22.4004H9.79688V23.0004H10.3969V22.4004Z" fill="white"/>
    <path d="M10.3969 23H9.79688V23.6H10.3969V23Z" fill="white"/>
    <path d="M10.9984 2.60059H10.3984V3.20059H10.9984V2.60059Z" fill="white"/>
    <path d="M10.9984 3.80078H10.3984V4.40078H10.9984V3.80078Z" fill="white"/>
    <path d="M10.9984 5.60059H10.3984V6.20059H10.9984V5.60059Z" fill="white"/>
    <path d="M10.9984 7.40039H10.3984V8.00039H10.9984V7.40039Z" fill="white"/>
    <path d="M10.9984 8.60059H10.3984V9.20059H10.9984V8.60059Z" fill="white"/>
    <path d="M10.9984 9.80078H10.3984V10.4008H10.9984V9.80078Z" fill="white"/>
    <path d="M10.9984 11H10.3984V11.6H10.9984V11Z" fill="white"/>
    <path d="M10.9984 11.6006H10.3984V12.2006H10.9984V11.6006Z" fill="white"/>
    <path d="M10.9984 13.4004H10.3984V14.0004H10.9984V13.4004Z" fill="white"/>
    <path d="M10.9984 15.2002H10.3984V15.8002H10.9984V15.2002Z" fill="white"/>
    <path d="M10.9984 17H10.3984V17.6H10.9984V17Z" fill="white"/>
    <path d="M10.9984 18.2002H10.3984V18.8002H10.9984V18.2002Z" fill="white"/>
    <path d="M10.9984 18.8008H10.3984V19.4008H10.9984V18.8008Z" fill="white"/>
    <path d="M10.9984 19.4004H10.3984V20.0004H10.9984V19.4004Z" fill="white"/>
    <path d="M10.9984 20H10.3984V20.6H10.9984V20Z" fill="white"/>
    <path d="M10.9984 20.6006H10.3984V21.2006H10.9984V20.6006Z" fill="white"/>
    <path d="M10.9984 21.2002H10.3984V21.8002H10.9984V21.2002Z" fill="white"/>
    <path d="M10.9984 21.8008H10.3984V22.4008H10.9984V21.8008Z" fill="white"/>
    <path d="M10.9984 22.4004H10.3984V23.0004H10.9984V22.4004Z" fill="white"/>
    <path d="M10.9984 23H10.3984V23.6H10.9984V23Z" fill="white"/>
    <path d="M11.6 1.40039H11V2.00039H11.6V1.40039Z" fill="white"/>
    <path d="M11.6 2.60059H11V3.20059H11.6V2.60059Z" fill="white"/>
    <path d="M11.6 4.40039H11V5.00039H11.6V4.40039Z" fill="white"/>
    <path d="M11.6 5H11V5.6H11.6V5Z" fill="white"/>
    <path d="M11.6 5.60059H11V6.20059H11.6V5.60059Z" fill="white"/>
    <path d="M11.6 7.40039H11V8.00039H11.6V7.40039Z" fill="white"/>
    <path d="M11.6 8H11V8.6H11.6V8Z" fill="white"/>
    <path d="M11.6 8.60059H11V9.20059H11.6V8.60059Z" fill="white"/>
    <path d="M11.6 9.2002H11V9.8002H11.6V9.2002Z" fill="white"/>
    <path d="M11.6 11H11V11.6H11.6V11Z" fill="white"/>
    <path d="M11.6 12.8008H11V13.4008H11.6V12.8008Z" fill="white"/>
    <path d="M11.6 14H11V14.6H11.6V14Z" fill="white"/>
    <path d="M11.6 16.4004H11V17.0004H11.6V16.4004Z" fill="white"/>
    <path d="M11.6 17.6006H11V18.2006H11.6V17.6006Z" fill="white"/>
    <path d="M11.6 19.4004H11V20.0004H11.6V19.4004Z" fill="white"/>
    <path d="M11.6 21.8008H11V22.4008H11.6V21.8008Z" fill="white"/>
    <path d="M11.6 22.4004H11V23.0004H11.6V22.4004Z" fill="white"/>
    <path d="M12.1977 1.40039H11.5977V2.00039H12.1977V1.40039Z" fill="white"/>
    <path d="M12.1977 2H11.5977V2.6H12.1977V2Z" fill="white"/>
    <path d="M12.1977 2.60059H11.5977V3.20059H12.1977V2.60059Z" fill="white"/>
    <path d="M12.1977 3.2002H11.5977V3.8002H12.1977V3.2002Z" fill="white"/>
    <path d="M12.1977 3.80078H11.5977V4.40078H12.1977V3.80078Z" fill="white"/>
    <path d="M12.1977 4.40039H11.5977V5.00039H12.1977V4.40039Z" fill="white"/>
    <path d="M12.1977 6.2002H11.5977V6.8002H12.1977V6.2002Z" fill="white"/>
    <path d="M12.1977 8H11.5977V8.6H12.1977V8Z" fill="white"/>
    <path d="M12.1977 8.60059H11.5977V9.20059H12.1977V8.60059Z" fill="white"/>
    <path d="M12.1977 10.4004H11.5977V11.0004H12.1977V10.4004Z" fill="white"/>
    <path d="M12.1977 12.2002H11.5977V12.8002H12.1977V12.2002Z" fill="white"/>
    <path d="M12.1977 12.8008H11.5977V13.4008H12.1977V12.8008Z" fill="white"/>
    <path d="M12.1977 13.4004H11.5977V14.0004H12.1977V13.4004Z" fill="white"/>
    <path d="M12.1977 14H11.5977V14.6H12.1977V14Z" fill="white"/>
    <path d="M12.1977 15.2002H11.5977V15.8002H12.1977V15.2002Z" fill="white"/>
    <path d="M12.1977 15.8008H11.5977V16.4008H12.1977V15.8008Z" fill="white"/>
    <path d="M12.1977 17.6006H11.5977V18.2006H12.1977V17.6006Z" fill="white"/>
    <path d="M12.1977 18.8008H11.5977V19.4008H12.1977V18.8008Z" fill="white"/>
    <path d="M12.1977 20H11.5977V20.6H12.1977V20Z" fill="white"/>
    <path d="M12.1977 21.8008H11.5977V22.4008H12.1977V21.8008Z" fill="white"/>
    <path d="M12.1977 22.4004H11.5977V23.0004H12.1977V22.4004Z" fill="white"/>
    <path d="M12.7992 2H12.1992V2.6H12.7992V2Z" fill="white"/>
    <path d="M12.7992 3.2002H12.1992V3.8002H12.7992V3.2002Z" fill="white"/>
    <path d="M12.7992 3.80078H12.1992V4.40078H12.7992V3.80078Z" fill="white"/>
    <path d="M12.7992 5H12.1992V5.6H12.7992V5Z" fill="white"/>
    <path d="M12.7992 8H12.1992V8.6H12.7992V8Z" fill="white"/>
    <path d="M12.7992 9.2002H12.1992V9.8002H12.7992V9.2002Z" fill="white"/>
    <path d="M12.7992 9.80078H12.1992V10.4008H12.7992V9.80078Z" fill="white"/>
    <path d="M12.7992 12.2002H12.1992V12.8002H12.7992V12.2002Z" fill="white"/>
    <path d="M12.7992 12.8008H12.1992V13.4008H12.7992V12.8008Z" fill="white"/>
    <path d="M12.7992 14H12.1992V14.6H12.7992V14Z" fill="white"/>
    <path d="M12.7992 14.6006H12.1992V15.2006H12.7992V14.6006Z" fill="white"/>
    <path d="M12.7992 15.2002H12.1992V15.8002H12.7992V15.2002Z" fill="white"/>
    <path d="M12.7992 16.4004H12.1992V17.0004H12.7992V16.4004Z" fill="white"/>
    <path d="M12.7992 17.6006H12.1992V18.2006H12.7992V17.6006Z" fill="white"/>
    <path d="M12.7992 18.2002H12.1992V18.8002H12.7992V18.2002Z" fill="white"/>
    <path d="M12.7992 19.4004H12.1992V20.0004H12.7992V19.4004Z" fill="white"/>
    <path d="M12.7992 20H12.1992V20.6H12.7992V20Z" fill="white"/>
    <path d="M12.7992 20.6006H12.1992V21.2006H12.7992V20.6006Z" fill="white"/>
    <path d="M12.7992 21.2002H12.1992V21.8002H12.7992V21.2002Z" fill="white"/>
    <path d="M12.7992 21.8008H12.1992V22.4008H12.7992V21.8008Z" fill="white"/>
    <path d="M12.7992 23H12.1992V23.6H12.7992V23Z" fill="white"/>
    <path d="M13.3969 1.40039H12.7969V2.00039H13.3969V1.40039Z" fill="white"/>
    <path d="M13.3969 2.60059H12.7969V3.20059H13.3969V2.60059Z" fill="white"/>
    <path d="M13.3969 4.40039H12.7969V5.00039H13.3969V4.40039Z" fill="white"/>
    <path d="M13.3969 5.60059H12.7969V6.20059H13.3969V5.60059Z" fill="white"/>
    <path d="M13.3969 6.2002H12.7969V6.8002H13.3969V6.2002Z" fill="white"/>
    <path d="M13.3969 6.80078H12.7969V7.40078H13.3969V6.80078Z" fill="white"/>
    <path d="M13.3969 7.40039H12.7969V8.00039H13.3969V7.40039Z" fill="white"/>
    <path d="M13.3969 8H12.7969V8.6H13.3969V8Z" fill="white"/>
    <path d="M13.3969 10.4004H12.7969V11.0004H13.3969V10.4004Z" fill="white"/>
    <path d="M13.3969 12.2002H12.7969V12.8002H13.3969V12.2002Z" fill="white"/>
    <path d="M13.3969 14.6006H12.7969V15.2006H13.3969V14.6006Z" fill="white"/>
    <path d="M13.3969 15.8008H12.7969V16.4008H13.3969V15.8008Z" fill="white"/>
    <path d="M13.3969 16.4004H12.7969V17.0004H13.3969V16.4004Z" fill="white"/>
    <path d="M13.3969 17.6006H12.7969V18.2006H13.3969V17.6006Z" fill="white"/>
    <path d="M13.3969 18.2002H12.7969V18.8002H13.3969V18.2002Z" fill="white"/>
    <path d="M13.3969 19.4004H12.7969V20.0004H13.3969V19.4004Z" fill="white"/>
    <path d="M13.3969 20.6006H12.7969V21.2006H13.3969V20.6006Z" fill="white"/>
    <path d="M13.3969 21.2002H12.7969V21.8002H13.3969V21.2002Z" fill="white"/>
    <path d="M13.9984 3.80078H13.3984V4.40078H13.9984V3.80078Z" fill="white"/>
    <path d="M13.9984 5H13.3984V5.6H13.9984V5Z" fill="white"/>
    <path d="M13.9984 5.60059H13.3984V6.20059H13.9984V5.60059Z" fill="white"/>
    <path d="M13.9984 6.2002H13.3984V6.8002H13.9984V6.2002Z" fill="white"/>
    <path d="M13.9984 6.80078H13.3984V7.40078H13.9984V6.80078Z" fill="white"/>
    <path d="M13.9984 7.40039H13.3984V8.00039H13.9984V7.40039Z" fill="white"/>
    <path d="M13.9984 8.60059H13.3984V9.20059H13.9984V8.60059Z" fill="white"/>
    <path d="M13.9984 9.2002H13.3984V9.8002H13.9984V9.2002Z" fill="white"/>
    <path d="M13.9984 9.80078H13.3984V10.4008H13.9984V9.80078Z" fill="white"/>
    <path d="M13.9984 11H13.3984V11.6H13.9984V11Z" fill="white"/>
    <path d="M13.9984 11.6006H13.3984V12.2006H13.9984V11.6006Z" fill="white"/>
    <path d="M13.9984 12.2002H13.3984V12.8002H13.9984V12.2002Z" fill="white"/>
    <path d="M13.9984 12.8008H13.3984V13.4008H13.9984V12.8008Z" fill="white"/>
    <path d="M13.9984 15.8008H13.3984V16.4008H13.9984V15.8008Z" fill="white"/>
    <path d="M13.9984 16.4004H13.3984V17.0004H13.9984V16.4004Z" fill="white"/>
    <path d="M13.9984 17H13.3984V17.6H13.9984V17Z" fill="white"/>
    <path d="M13.9984 18.2002H13.3984V18.8002H13.9984V18.2002Z" fill="white"/>
    <path d="M13.9984 18.8008H13.3984V19.4008H13.9984V18.8008Z" fill="white"/>
    <path d="M13.9984 19.4004H13.3984V20.0004H13.9984V19.4004Z" fill="white"/>
    <path d="M13.9984 20.6006H13.3984V21.2006H13.9984V20.6006Z" fill="white"/>
    <path d="M13.9984 21.2002H13.3984V21.8002H13.9984V21.2002Z" fill="white"/>
    <path d="M13.9984 23H13.3984V23.6H13.9984V23Z" fill="white"/>
    <path d="M14.6 1.40039H14V2.00039H14.6V1.40039Z" fill="white"/>
    <path d="M14.6 2H14V2.6H14.6V2Z" fill="white"/>
    <path d="M14.6 3.80078H14V4.40078H14.6V3.80078Z" fill="white"/>
    <path d="M14.6 4.40039H14V5.00039H14.6V4.40039Z" fill="white"/>
    <path d="M14.6 5.60059H14V6.20059H14.6V5.60059Z" fill="white"/>
    <path d="M14.6 6.2002H14V6.8002H14.6V6.2002Z" fill="white"/>
    <path d="M14.6 6.80078H14V7.40078H14.6V6.80078Z" fill="white"/>
    <path d="M14.6 7.40039H14V8.00039H14.6V7.40039Z" fill="white"/>
    <path d="M14.6 8H14V8.6H14.6V8Z" fill="white"/>
    <path d="M14.6 9.80078H14V10.4008H14.6V9.80078Z" fill="white"/>
    <path d="M14.6 12.2002H14V12.8002H14.6V12.2002Z" fill="white"/>
    <path d="M14.6 13.4004H14V14.0004H14.6V13.4004Z" fill="white"/>
    <path d="M14.6 14H14V14.6H14.6V14Z" fill="white"/>
    <path d="M14.6 14.6006H14V15.2006H14.6V14.6006Z" fill="white"/>
    <path d="M14.6 15.2002H14V15.8002H14.6V15.2002Z" fill="white"/>
    <path d="M14.6 17.6006H14V18.2006H14.6V17.6006Z" fill="white"/>
    <path d="M14.6 18.2002H14V18.8002H14.6V18.2002Z" fill="white"/>
    <path d="M14.6 18.8008H14V19.4008H14.6V18.8008Z" fill="white"/>
    <path d="M14.6 20H14V20.6H14.6V20Z" fill="white"/>
    <path d="M14.6 20.6006H14V21.2006H14.6V20.6006Z" fill="white"/>
    <path d="M14.6 21.8008H14V22.4008H14.6V21.8008Z" fill="white"/>
    <path d="M14.6 22.4004H14V23.0004H14.6V22.4004Z" fill="white"/>
    <path d="M15.1977 1.40039H14.5977V2.00039H15.1977V1.40039Z" fill="white"/>
    <path d="M15.1977 2H14.5977V2.6H15.1977V2Z" fill="white"/>
    <path d="M15.1977 3.80078H14.5977V4.40078H15.1977V3.80078Z" fill="white"/>
    <path d="M15.1977 5H14.5977V5.6H15.1977V5Z" fill="white"/>
    <path d="M15.1977 6.2002H14.5977V6.8002H15.1977V6.2002Z" fill="white"/>
    <path d="M15.1977 8H14.5977V8.6H15.1977V8Z" fill="white"/>
    <path d="M15.1977 9.2002H14.5977V9.8002H15.1977V9.2002Z" fill="white"/>
    <path d="M15.1977 11.6006H14.5977V12.2006H15.1977V11.6006Z" fill="white"/>
    <path d="M15.1977 12.8008H14.5977V13.4008H15.1977V12.8008Z" fill="white"/>
    <path d="M15.1977 13.4004H14.5977V14.0004H15.1977V13.4004Z" fill="white"/>
    <path d="M15.1977 15.2002H14.5977V15.8002H15.1977V15.2002Z" fill="white"/>
    <path d="M15.1977 15.8008H14.5977V16.4008H15.1977V15.8008Z" fill="white"/>
    <path d="M15.1977 17H14.5977V17.6H15.1977V17Z" fill="white"/>
    <path d="M15.1977 17.6006H14.5977V18.2006H15.1977V17.6006Z" fill="white"/>
    <path d="M15.1977 19.4004H14.5977V20.0004H15.1977V19.4004Z" fill="white"/>
    <path d="M15.1977 20.6006H14.5977V21.2006H15.1977V20.6006Z" fill="white"/>
    <path d="M15.1977 21.8008H14.5977V22.4008H15.1977V21.8008Z" fill="white"/>
    <path d="M15.1977 23H14.5977V23.6H15.1977V23Z" fill="white"/>
    <path d="M15.7992 1.40039H15.1992V2.00039H15.7992V1.40039Z" fill="white"/>
    <path d="M15.7992 3.2002H15.1992V3.8002H15.7992V3.2002Z" fill="white"/>
    <path d="M15.7992 4.40039H15.1992V5.00039H15.7992V4.40039Z" fill="white"/>
    <path d="M15.7992 6.80078H15.1992V7.40078H15.7992V6.80078Z" fill="white"/>
    <path d="M15.7992 7.40039H15.1992V8.00039H15.7992V7.40039Z" fill="white"/>
    <path d="M15.7992 9.2002H15.1992V9.8002H15.7992V9.2002Z" fill="white"/>
    <path d="M15.7992 9.80078H15.1992V10.4008H15.7992V9.80078Z" fill="white"/>
    <path d="M15.7992 11.6006H15.1992V12.2006H15.7992V11.6006Z" fill="white"/>
    <path d="M15.7992 13.4004H15.1992V14.0004H15.7992V13.4004Z" fill="white"/>
    <path d="M15.7992 15.2002H15.1992V15.8002H15.7992V15.2002Z" fill="white"/>
    <path d="M15.7992 17H15.1992V17.6H15.7992V17Z" fill="white"/>
    <path d="M15.7992 17.6006H15.1992V18.2006H15.7992V17.6006Z" fill="white"/>
    <path d="M15.7992 18.2002H15.1992V18.8002H15.7992V18.2002Z" fill="white"/>
    <path d="M15.7992 18.8008H15.1992V19.4008H15.7992V18.8008Z" fill="white"/>
    <path d="M15.7992 19.4004H15.1992V20.0004H15.7992V19.4004Z" fill="white"/>
    <path d="M15.7992 20H15.1992V20.6H15.7992V20Z" fill="white"/>
    <path d="M15.7992 21.2002H15.1992V21.8002H15.7992V21.2002Z" fill="white"/>
    <path d="M15.7992 21.8008H15.1992V22.4008H15.7992V21.8008Z" fill="white"/>
    <path d="M16.3969 1.40039H15.7969V2.00039H16.3969V1.40039Z" fill="white"/>
    <path d="M16.3969 2H15.7969V2.6H16.3969V2Z" fill="white"/>
    <path d="M16.3969 3.2002H15.7969V3.8002H16.3969V3.2002Z" fill="white"/>
    <path d="M16.3969 5H15.7969V5.6H16.3969V5Z" fill="white"/>
    <path d="M16.3969 8H15.7969V8.6H16.3969V8Z" fill="white"/>
    <path d="M16.3969 8.60059H15.7969V9.20059H16.3969V8.60059Z" fill="white"/>
    <path d="M16.3969 9.80078H15.7969V10.4008H16.3969V9.80078Z" fill="white"/>
    <path d="M16.3969 10.4004H15.7969V11.0004H16.3969V10.4004Z" fill="white"/>
    <path d="M16.3969 11H15.7969V11.6H16.3969V11Z" fill="white"/>
    <path d="M16.3969 12.8008H15.7969V13.4008H16.3969V12.8008Z" fill="white"/>
    <path d="M16.3969 15.2002H15.7969V15.8002H16.3969V15.2002Z" fill="white"/>
    <path d="M16.3969 16.4004H15.7969V17.0004H16.3969V16.4004Z" fill="white"/>
    <path d="M16.3969 17H15.7969V17.6H16.3969V17Z" fill="white"/>
    <path d="M16.3969 18.2002H15.7969V18.8002H16.3969V18.2002Z" fill="white"/>
    <path d="M16.3969 18.8008H15.7969V19.4008H16.3969V18.8008Z" fill="white"/>
    <path d="M16.3969 19.4004H15.7969V20.0004H16.3969V19.4004Z" fill="white"/>
    <path d="M16.3969 20H15.7969V20.6H16.3969V20Z" fill="white"/>
    <path d="M16.3969 21.2002H15.7969V21.8002H16.3969V21.2002Z" fill="white"/>
    <path d="M16.9984 1.40039H16.3984V2.00039H16.9984V1.40039Z" fill="white"/>
    <path d="M16.9984 2H16.3984V2.6H16.9984V2Z" fill="white"/>
    <path d="M16.9984 3.2002H16.3984V3.8002H16.9984V3.2002Z" fill="white"/>
    <path d="M16.9984 3.80078H16.3984V4.40078H16.9984V3.80078Z" fill="white"/>
    <path d="M16.9984 5.60059H16.3984V6.20059H16.9984V5.60059Z" fill="white"/>
    <path d="M16.9984 9.2002H16.3984V9.8002H16.9984V9.2002Z" fill="white"/>
    <path d="M16.9984 11H16.3984V11.6H16.9984V11Z" fill="white"/>
    <path d="M16.9984 11.6006H16.3984V12.2006H16.9984V11.6006Z" fill="white"/>
    <path d="M16.9984 12.2002H16.3984V12.8002H16.9984V12.2002Z" fill="white"/>
    <path d="M16.9984 13.4004H16.3984V14.0004H16.9984V13.4004Z" fill="white"/>
    <path d="M16.9984 15.2002H16.3984V15.8002H16.9984V15.2002Z" fill="white"/>
    <path d="M16.9984 16.4004H16.3984V17.0004H16.9984V16.4004Z" fill="white"/>
    <path d="M16.9984 18.2002H16.3984V18.8002H16.9984V18.2002Z" fill="white"/>
    <path d="M16.9984 19.4004H16.3984V20.0004H16.9984V19.4004Z" fill="white"/>
    <path d="M16.9984 20.6006H16.3984V21.2006H16.9984V20.6006Z" fill="white"/>
    <path d="M16.9984 21.2002H16.3984V21.8002H16.9984V21.2002Z" fill="white"/>
    <path d="M16.9984 21.8008H16.3984V22.4008H16.9984V21.8008Z" fill="white"/>
    <path d="M17.6 1.40039H17V2.00039H17.6V1.40039Z" fill="white"/>
    <path d="M17.6 2H17V2.6H17.6V2Z" fill="white"/>
    <path d="M17.6 5H17V5.6H17.6V5Z" fill="white"/>
    <path d="M17.6 6.80078H17V7.40078H17.6V6.80078Z" fill="white"/>
    <path d="M17.6 7.40039H17V8.00039H17.6V7.40039Z" fill="white"/>
    <path d="M17.6 9.80078H17V10.4008H17.6V9.80078Z" fill="white"/>
    <path d="M17.6 10.4004H17V11.0004H17.6V10.4004Z" fill="white"/>
    <path d="M17.6 11H17V11.6H17.6V11Z" fill="white"/>
    <path d="M17.6 11.6006H17V12.2006H17.6V11.6006Z" fill="white"/>
    <path d="M17.6 13.4004H17V14.0004H17.6V13.4004Z" fill="white"/>
    <path d="M17.6 14H17V14.6H17.6V14Z" fill="white"/>
    <path d="M17.6 16.4004H17V17.0004H17.6V16.4004Z" fill="white"/>
    <path d="M17.6 17H17V17.6H17.6V17Z" fill="white"/>
    <path d="M17.6 18.2002H17V18.8002H17.6V18.2002Z" fill="white"/>
    <path d="M17.6 19.4004H17V20.0004H17.6V19.4004Z" fill="white"/>
    <path d="M17.6 21.8008H17V22.4008H17.6V21.8008Z" fill="white"/>
    <path d="M17.6 23H17V23.6H17.6V23Z" fill="white"/>
    <path d="M18.1977 1.40039H17.5977V2.00039H18.1977V1.40039Z" fill="white"/>
    <path d="M18.1977 3.2002H17.5977V3.8002H18.1977V3.2002Z" fill="white"/>
    <path d="M18.1977 6.2002H17.5977V6.8002H18.1977V6.2002Z" fill="white"/>
    <path d="M18.1977 6.80078H17.5977V7.40078H18.1977V6.80078Z" fill="white"/>
    <path d="M18.1977 7.40039H17.5977V8.00039H18.1977V7.40039Z" fill="white"/>
    <path d="M18.1977 8H17.5977V8.6H18.1977V8Z" fill="white"/>
    <path d="M18.1977 8.60059H17.5977V9.20059H18.1977V8.60059Z" fill="white"/>
    <path d="M18.1977 9.2002H17.5977V9.8002H18.1977V9.2002Z" fill="white"/>
    <path d="M18.1977 9.80078H17.5977V10.4008H18.1977V9.80078Z" fill="white"/>
    <path d="M18.1977 11H17.5977V11.6H18.1977V11Z" fill="white"/>
    <path d="M18.1977 12.2002H17.5977V12.8002H18.1977V12.2002Z" fill="white"/>
    <path d="M18.1977 15.2002H17.5977V15.8002H18.1977V15.2002Z" fill="white"/>
    <path d="M18.1977 17.6006H17.5977V18.2006H18.1977V17.6006Z" fill="white"/>
    <path d="M18.1977 18.8008H17.5977V19.4008H18.1977V18.8008Z" fill="white"/>
    <path d="M18.1977 20H17.5977V20.6H18.1977V20Z" fill="white"/>
    <path d="M18.1977 20.6006H17.5977V21.2006H18.1977V20.6006Z" fill="white"/>
    <path d="M18.1977 21.2002H17.5977V21.8002H18.1977V21.2002Z" fill="white"/>
    <path d="M18.1977 21.8008H17.5977V22.4008H18.1977V21.8008Z" fill="white"/>
    <path d="M18.1977 22.4004H17.5977V23.0004H18.1977V22.4004Z" fill="white"/>
    <path d="M18.1977 23H17.5977V23.6H18.1977V23Z" fill="white"/>
    <path d="M18.7992 1.40039H18.1992V2.00039H18.7992V1.40039Z" fill="white"/>
    <path d="M18.7992 2.60059H18.1992V3.20059H18.7992V2.60059Z" fill="white"/>
    <path d="M18.7992 3.2002H18.1992V3.8002H18.7992V3.2002Z" fill="white"/>
    <path d="M18.7992 4.40039H18.1992V5.00039H18.7992V4.40039Z" fill="white"/>
    <path d="M18.7992 5H18.1992V5.6H18.7992V5Z" fill="white"/>
    <path d="M18.7992 6.2002H18.1992V6.8002H18.7992V6.2002Z" fill="white"/>
    <path d="M18.7992 7.40039H18.1992V8.00039H18.7992V7.40039Z" fill="white"/>
    <path d="M18.7992 8H18.1992V8.6H18.7992V8Z" fill="white"/>
    <path d="M18.7992 9.80078H18.1992V10.4008H18.7992V9.80078Z" fill="white"/>
    <path d="M18.7992 11H18.1992V11.6H18.7992V11Z" fill="white"/>
    <path d="M18.7992 11.6006H18.1992V12.2006H18.7992V11.6006Z" fill="white"/>
    <path d="M18.7992 12.2002H18.1992V12.8002H18.7992V12.2002Z" fill="white"/>
    <path d="M18.7992 12.8008H18.1992V13.4008H18.7992V12.8008Z" fill="white"/>
    <path d="M18.7992 14.6006H18.1992V15.2006H18.7992V14.6006Z" fill="white"/>
    <path d="M18.7992 15.8008H18.1992V16.4008H18.7992V15.8008Z" fill="white"/>
    <path d="M18.7992 16.4004H18.1992V17.0004H18.7992V16.4004Z" fill="white"/>
    <path d="M18.7992 18.2002H18.1992V18.8002H18.7992V18.2002Z" fill="white"/>
    <path d="M18.7992 18.8008H18.1992V19.4008H18.7992V18.8008Z" fill="white"/>
    <path d="M18.7992 19.4004H18.1992V20.0004H18.7992V19.4004Z" fill="white"/>
    <path d="M18.7992 20H18.1992V20.6H18.7992V20Z" fill="white"/>
    <path d="M18.7992 20.6006H18.1992V21.2006H18.7992V20.6006Z" fill="white"/>
    <path d="M18.7992 21.2002H18.1992V21.8002H18.7992V21.2002Z" fill="white"/>
    <path d="M18.7992 21.8008H18.1992V22.4008H18.7992V21.8008Z" fill="white"/>
    <path d="M18.7992 22.4004H18.1992V23.0004H18.7992V22.4004Z" fill="white"/>
    <path d="M19.3969 6.2002H18.7969V6.8002H19.3969V6.2002Z" fill="white"/>
    <path d="M19.3969 7.40039H18.7969V8.00039H19.3969V7.40039Z" fill="white"/>
    <path d="M19.3969 8H18.7969V8.6H19.3969V8Z" fill="white"/>
    <path d="M19.3969 8.60059H18.7969V9.20059H19.3969V8.60059Z" fill="white"/>
    <path d="M19.3969 11.6006H18.7969V12.2006H19.3969V11.6006Z" fill="white"/>
    <path d="M19.3969 12.8008H18.7969V13.4008H19.3969V12.8008Z" fill="white"/>
    <path d="M19.3969 13.4004H18.7969V14.0004H19.3969V13.4004Z" fill="white"/>
    <path d="M19.3969 14H18.7969V14.6H19.3969V14Z" fill="white"/>
    <path d="M19.3969 14.6006H18.7969V15.2006H19.3969V14.6006Z" fill="white"/>
    <path d="M19.3969 15.8008H18.7969V16.4008H19.3969V15.8008Z" fill="white"/>
    <path d="M19.3969 18.2002H18.7969V18.8002H19.3969V18.2002Z" fill="white"/>
    <path d="M19.3969 20.6006H18.7969V21.2006H19.3969V20.6006Z" fill="white"/>
    <path d="M19.3969 21.2002H18.7969V21.8002H19.3969V21.2002Z" fill="white"/>
    <path d="M19.3969 21.8008H18.7969V22.4008H19.3969V21.8008Z" fill="white"/>
    <path d="M19.3969 22.4004H18.7969V23.0004H19.3969V22.4004Z" fill="white"/>
    <path d="M19.9984 8H19.3984V8.6H19.9984V8Z" fill="white"/>
    <path d="M19.9984 11.6006H19.3984V12.2006H19.9984V11.6006Z" fill="white"/>
    <path d="M19.9984 12.8008H19.3984V13.4008H19.9984V12.8008Z" fill="white"/>
    <path d="M19.9984 13.4004H19.3984V14.0004H19.9984V13.4004Z" fill="white"/>
    <path d="M19.9984 15.2002H19.3984V15.8002H19.9984V15.2002Z" fill="white"/>
    <path d="M19.9984 15.8008H19.3984V16.4008H19.9984V15.8008Z" fill="white"/>
    <path d="M19.9984 18.2002H19.3984V18.8002H19.9984V18.2002Z" fill="white"/>
    <path d="M19.9984 19.4004H19.3984V20.0004H19.9984V19.4004Z" fill="white"/>
    <path d="M19.9984 20.6006H19.3984V21.2006H19.9984V20.6006Z" fill="white"/>
    <path d="M19.9984 21.2002H19.3984V21.8002H19.9984V21.2002Z" fill="white"/>
    <path d="M19.9984 21.8008H19.3984V22.4008H19.9984V21.8008Z" fill="white"/>
    <path d="M19.9984 23H19.3984V23.6H19.9984V23Z" fill="white"/>
    <path d="M20.6 6.2002H20V6.8002H20.6V6.2002Z" fill="white"/>
    <path d="M20.6 6.80078H20V7.40078H20.6V6.80078Z" fill="white"/>
    <path d="M20.6 8.60059H20V9.20059H20.6V8.60059Z" fill="white"/>
    <path d="M20.6 11H20V11.6H20.6V11Z" fill="white"/>
    <path d="M20.6 12.2002H20V12.8002H20.6V12.2002Z" fill="white"/>
    <path d="M20.6 14H20V14.6H20.6V14Z" fill="white"/>
    <path d="M20.6 15.2002H20V15.8002H20.6V15.2002Z" fill="white"/>
    <path d="M20.6 16.4004H20V17.0004H20.6V16.4004Z" fill="white"/>
    <path d="M20.6 17.6006H20V18.2006H20.6V17.6006Z" fill="white"/>
    <path d="M20.6 18.2002H20V18.8002H20.6V18.2002Z" fill="white"/>
    <path d="M20.6 20.6006H20V21.2006H20.6V20.6006Z" fill="white"/>
    <path d="M20.6 21.2002H20V21.8002H20.6V21.2002Z" fill="white"/>
    <path d="M20.6 22.4004H20V23.0004H20.6V22.4004Z" fill="white"/>
    <path d="M21.1977 6.2002H20.5977V6.8002H21.1977V6.2002Z" fill="white"/>
    <path d="M21.1977 6.80078H20.5977V7.40078H21.1977V6.80078Z" fill="white"/>
    <path d="M21.1977 7.40039H20.5977V8.00039H21.1977V7.40039Z" fill="white"/>
    <path d="M21.1977 8H20.5977V8.6H21.1977V8Z" fill="white"/>
    <path d="M21.1977 9.2002H20.5977V9.8002H21.1977V9.2002Z" fill="white"/>
    <path d="M21.1977 10.4004H20.5977V11.0004H21.1977V10.4004Z" fill="white"/>
    <path d="M21.1977 11.6006H20.5977V12.2006H21.1977V11.6006Z" fill="white"/>
    <path d="M21.1977 12.2002H20.5977V12.8002H21.1977V12.2002Z" fill="white"/>
    <path d="M21.1977 13.4004H20.5977V14.0004H21.1977V13.4004Z" fill="white"/>
    <path d="M21.1977 14H20.5977V14.6H21.1977V14Z" fill="white"/>
    <path d="M21.1977 15.2002H20.5977V15.8002H21.1977V15.2002Z" fill="white"/>
    <path d="M21.1977 15.8008H20.5977V16.4008H21.1977V15.8008Z" fill="white"/>
    <path d="M21.1977 17.6006H20.5977V18.2006H21.1977V17.6006Z" fill="white"/>
    <path d="M21.1977 18.2002H20.5977V18.8002H21.1977V18.2002Z" fill="white"/>
    <path d="M21.1977 18.8008H20.5977V19.4008H21.1977V18.8008Z" fill="white"/>
    <path d="M21.1977 19.4004H20.5977V20.0004H21.1977V19.4004Z" fill="white"/>
    <path d="M21.1977 20H20.5977V20.6H21.1977V20Z" fill="white"/>
    <path d="M21.1977 20.6006H20.5977V21.2006H21.1977V20.6006Z" fill="white"/>
    <path d="M21.7992 6.2002H21.1992V6.8002H21.7992V6.2002Z" fill="white"/>
    <path d="M21.7992 6.80078H21.1992V7.40078H21.7992V6.80078Z" fill="white"/>
    <path d="M21.7992 7.40039H21.1992V8.00039H21.7992V7.40039Z" fill="white"/>
    <path d="M21.7992 9.2002H21.1992V9.8002H21.7992V9.2002Z" fill="white"/>
    <path d="M21.7992 10.4004H21.1992V11.0004H21.7992V10.4004Z" fill="white"/>
    <path d="M21.7992 11.6006H21.1992V12.2006H21.7992V11.6006Z" fill="white"/>
    <path d="M21.7992 12.2002H21.1992V12.8002H21.7992V12.2002Z" fill="white"/>
    <path d="M21.7992 13.4004H21.1992V14.0004H21.7992V13.4004Z" fill="white"/>
    <path d="M21.7992 14H21.1992V14.6H21.7992V14Z" fill="white"/>
    <path d="M21.7992 14.6006H21.1992V15.2006H21.7992V14.6006Z" fill="white"/>
    <path d="M21.7992 16.4004H21.1992V17.0004H21.7992V16.4004Z" fill="white"/>
    <path d="M21.7992 17H21.1992V17.6H21.7992V17Z" fill="white"/>
    <path d="M21.7992 17.6006H21.1992V18.2006H21.7992V17.6006Z" fill="white"/>
    <path d="M21.7992 19.4004H21.1992V20.0004H21.7992V19.4004Z" fill="white"/>
    <path d="M21.7992 21.2002H21.1992V21.8002H21.7992V21.2002Z" fill="white"/>
    <path d="M21.7992 21.8008H21.1992V22.4008H21.7992V21.8008Z" fill="white"/>
    <path d="M21.7992 22.4004H21.1992V23.0004H21.7992V22.4004Z" fill="white"/>
    <path d="M22.3969 8H21.7969V8.6H22.3969V8Z" fill="white"/>
    <path d="M22.3969 12.2002H21.7969V12.8002H22.3969V12.2002Z" fill="white"/>
    <path d="M22.3969 14H21.7969V14.6H22.3969V14Z" fill="white"/>
    <path d="M22.3969 14.6006H21.7969V15.2006H22.3969V14.6006Z" fill="white"/>
    <path d="M22.3969 15.8008H21.7969V16.4008H22.3969V15.8008Z" fill="white"/>
    <path d="M22.3969 16.4004H21.7969V17.0004H22.3969V16.4004Z" fill="white"/>
    <path d="M22.3969 20H21.7969V20.6H22.3969V20Z" fill="white"/>
    <path d="M22.3969 20.6006H21.7969V21.2006H22.3969V20.6006Z" fill="white"/>
    <path d="M22.3969 22.4004H21.7969V23.0004H22.3969V22.4004Z" fill="white"/>
    <path d="M22.3969 23H21.7969V23.6H22.3969V23Z" fill="white"/>
    <path d="M22.9984 6.2002H22.3984V6.8002H22.9984V6.2002Z" fill="white"/>
    <path d="M22.9984 6.80078H22.3984V7.40078H22.9984V6.80078Z" fill="white"/>
    <path d="M22.9984 7.40039H22.3984V8.00039H22.9984V7.40039Z" fill="white"/>
    <path d="M22.9984 9.2002H22.3984V9.8002H22.9984V9.2002Z" fill="white"/>
    <path d="M22.9984 10.4004H22.3984V11.0004H22.9984V10.4004Z" fill="white"/>
    <path d="M22.9984 11H22.3984V11.6H22.9984V11Z" fill="white"/>
    <path d="M22.9984 11.6006H22.3984V12.2006H22.9984V11.6006Z" fill="white"/>
    <path d="M22.9984 12.2002H22.3984V12.8002H22.9984V12.2002Z" fill="white"/>
    <path d="M22.9984 14.6006H22.3984V15.2006H22.9984V14.6006Z" fill="white"/>
    <path d="M22.9984 17H22.3984V17.6H22.9984V17Z" fill="white"/>
    <path d="M22.9984 18.8008H22.3984V19.4008H22.9984V18.8008Z" fill="white"/>
    <path d="M22.9984 19.4004H22.3984V20.0004H22.9984V19.4004Z" fill="white"/>
    <path d="M22.9984 20H22.3984V20.6H22.9984V20Z" fill="white"/>
    <path d="M22.9984 20.6006H22.3984V21.2006H22.9984V20.6006Z" fill="white"/>
    <path d="M22.9984 21.2002H22.3984V21.8002H22.9984V21.2002Z" fill="white"/>
    <path d="M22.9984 21.8008H22.3984V22.4008H22.9984V21.8008Z" fill="white"/>
    <path d="M22.9984 22.4004H22.3984V23.0004H22.9984V22.4004Z" fill="white"/>
    <path d="M22.9984 23H22.3984V23.6H22.9984V23Z" fill="white"/>
    <path d="M23.6 6.80078H23V7.40078H23.6V6.80078Z" fill="white"/>
    <path d="M23.6 8.60059H23V9.20059H23.6V8.60059Z" fill="white"/>
    <path d="M23.6 10.4004H23V11.0004H23.6V10.4004Z" fill="white"/>
    <path d="M23.6 11.6006H23V12.2006H23.6V11.6006Z" fill="white"/>
    <path d="M23.6 12.8008H23V13.4008H23.6V12.8008Z" fill="white"/>
    <path d="M23.6 13.4004H23V14.0004H23.6V13.4004Z" fill="white"/>
    <path d="M23.6 15.8008H23V16.4008H23.6V15.8008Z" fill="white"/>
    <path d="M23.6 17.6006H23V18.2006H23.6V17.6006Z" fill="white"/>
    <path d="M23.6 18.2002H23V18.8002H23.6V18.2002Z" fill="white"/>
    <path d="M23.6 19.4004H23V20.0004H23.6V19.4004Z" fill="white"/>
    <path d="M23.6 21.2002H23V21.8002H23.6V21.2002Z" fill="white"/>
    <path d="M23.6 23H23V23.6H23.6V23Z" fill="white"/>
    </mask>
    <g mask="url(#mask0_951_3789)">
    <path d="M25 0H0V25H25V0Z" fill="#3377DC"/>
    </g>
    <mask id="mask1_951_3789" style="mask-type:luminance" maskUnits="userSpaceOnUse" x="1" y="1" width="5" height="5">
    <path fill-rule="evenodd" clip-rule="evenodd" d="M1.39844 1.40039V5.60039H5.59844V1.40039H1.39844ZM1.99844 2.00039H4.99844V5.00039H1.99844V2.00039Z" fill="white"/>
    </mask>
    <g mask="url(#mask1_951_3789)">
    <path d="M5.59844 1.40039H1.39844V5.60039H5.59844V1.40039Z" fill="#3377DC"/>
    </g>
    <mask id="mask2_951_3789" style="mask-type:luminance" maskUnits="userSpaceOnUse" x="2" y="2" width="3" height="3">
    <path d="M4.40156 2.59961H2.60156V4.39961H4.40156V2.59961Z" fill="white"/>
    </mask>
    <g mask="url(#mask2_951_3789)">
    <path d="M4.40156 2.59961H2.60156V4.39961H4.40156V2.59961Z" fill="#3377DC"/>
    </g>
    <mask id="mask3_951_3789" style="mask-type:luminance" maskUnits="userSpaceOnUse" x="19" y="1" width="5" height="5">
    <path fill-rule="evenodd" clip-rule="evenodd" d="M23.5977 1.40039L19.3977 1.40039V5.60039L23.5977 5.60039V1.40039ZM22.9977 2.00039V5.00039H19.9977V2.00039L22.9977 2.00039Z" fill="white"/>
    </mask>
    <g mask="url(#mask3_951_3789)">
    <path d="M23.5984 1.40039H19.3984V5.60039H23.5984V1.40039Z" fill="#3377DC"/>
    </g>
    <mask id="mask4_951_3789" style="mask-type:luminance" maskUnits="userSpaceOnUse" x="20" y="2" width="3" height="3">
    <path d="M22.4023 4.39961V2.59961L20.6023 2.59961V4.39961H22.4023Z" fill="white"/>
    </mask>
    <g mask="url(#mask4_951_3789)">
    <path d="M22.4016 2.59961H20.6016V4.39961H22.4016V2.59961Z" fill="#3377DC"/>
    </g>
    <mask id="mask5_951_3789" style="mask-type:luminance" maskUnits="userSpaceOnUse" x="1" y="19" width="5" height="5">
    <path fill-rule="evenodd" clip-rule="evenodd" d="M1.39844 23.6006H5.59844L5.59844 19.4006H1.39844L1.39844 23.6006ZM1.99844 23.0006L1.99844 20.0006H4.99844V23.0006H1.99844Z" fill="white"/>
    </mask>
    <g mask="url(#mask5_951_3789)">
    <path d="M5.59844 19.4004H1.39844V23.6004H5.59844V19.4004Z" fill="#3377DC"/>
    </g>
    <mask id="mask6_951_3789" style="mask-type:luminance" maskUnits="userSpaceOnUse" x="2" y="20" width="3" height="3">
    <path d="M2.60156 20.5994L2.60156 22.3994H4.40156V20.5994H2.60156Z" fill="white"/>
    </mask>
    <g mask="url(#mask6_951_3789)">
    <path d="M4.40156 20.5996H2.60156V22.3996H4.40156V20.5996Z" fill="#3377DC"/>
    </g>
    </g>
    <defs>
    <clipPath id="clip0_951_3789">
    <rect width="25" height="25" fill="white"/>
    </clipPath>
    </defs>
    </svg>
    