<svg width="24" height="22" viewBox="0 0 24 22" fill="none" xmlns="http://www.w3.org/2000/svg">
    <path d="M7.17177 19.36C6.25777 18.64 5.28177 17.95 4.61577 16.98C3.21377 15.268 2.13377 13.286 1.39577 11.203C0.949768 9.84802 0.795768 8.39502 0.221768 7.09302C-0.380232 6.14902 0.324768 5.11502 1.35977 4.81302C1.81977 4.72602 2.63177 4.29102 1.65277 4.60202C0.774768 5.24602 0.689768 4.01702 1.58977 3.94002C2.20477 3.85802 2.42977 3.35502 2.21977 2.90302C1.55977 2.47302 3.81977 2.00002 2.68277 1.35902C1.49977 0.0800204 4.33977 -0.164979 3.63977 1.28502C3.47277 2.40002 5.62377 1.08002 5.12477 2.36802C5.63177 2.98702 7.02477 2.50802 6.98977 3.37702C7.72977 3.42702 7.98277 4.04902 8.67677 4.09702C9.39677 4.42202 10.6988 4.67702 10.9428 5.48702C10.2298 6.05302 8.57877 4.32202 8.49977 5.88502C8.71477 8.19502 8.65977 10.574 9.50377 12.773C9.90377 14.105 10.8738 15.153 11.7478 16.191C12.5848 17.207 13.7188 17.921 14.8748 18.524C15.8888 19.002 16.9818 19.319 18.0878 19.518C18.5358 19.175 19.3278 17.901 20.0258 18.438C20.0588 19.042 18.6378 19.701 19.9588 19.634C20.7348 19.4 21.2728 20.234 21.9118 19.482C22.4998 20.179 24.3578 19.036 23.9388 20.462C23.3728 20.826 22.5468 20.606 21.9798 21.108C21.0448 20.641 20.2998 21.526 19.2648 21.414C18.1142 21.6129 16.9484 21.71 15.7808 21.704C13.8688 21.554 11.9158 21.49 10.0968 20.824C9.07277 20.527 8.07277 19.943 7.17177 19.36ZM8.78677 20.06C9.78677 20.492 10.7648 20.948 11.8608 21.086C13.6008 21.326 15.3978 21.7 17.1438 21.36C16.3538 21.003 15.5358 21.5 14.7488 21.105C13.8048 21.308 12.7918 21.053 11.8318 20.928C10.7398 20.442 9.56177 20.108 8.54077 19.476C7.26377 19.01 9.20077 20.074 9.54577 20.161C10.3438 20.614 8.66877 19.928 8.43177 19.74C7.76377 19.365 7.67777 19.443 8.36577 19.824C8.50477 19.904 8.64177 19.99 8.78577 20.059L8.78677 20.06ZM6.88277 18.714C7.85277 19.073 6.87877 18.032 6.43277 18.092C6.23677 17.751 5.68177 17.535 6.07277 17.352C5.36877 17.596 5.33577 16.422 5.00277 16.589C4.25877 16.354 4.71277 15.519 3.82677 15.009C3.74577 14.469 2.94477 14.001 2.68877 13.187C2.57577 12.771 1.78377 11.574 2.27077 12.687C2.68477 13.759 3.41377 14.677 4.02077 15.594C4.49077 16.467 5.04777 17.38 5.90577 17.924C6.19577 18.202 6.47377 18.627 6.88277 18.714ZM4.08977 15.647C4.26677 15.964 4.12277 15.501 4.08977 15.647ZM8.04377 19.144C8.25877 19.048 7.73377 19.024 8.04377 19.144ZM8.56977 19.336C8.51577 19.071 8.32977 19.484 8.56977 19.336ZM9.22977 19.611C9.54177 19.311 8.74577 19.423 9.22977 19.611ZM10.3568 20.241C10.5478 19.959 9.74677 20.134 10.3568 20.241ZM8.18977 18.728C8.67677 18.413 7.55977 18.724 8.18977 18.728ZM8.68377 18.974C8.66977 18.808 8.50777 19.049 8.68377 18.974ZM11.1538 20.516C11.5508 20.766 13.4738 21.066 12.2688 20.619C12.0688 20.661 10.0388 20.045 11.1528 20.516H11.1538ZM7.23277 17.462C7.19277 17.295 6.61677 17.277 7.23277 17.462ZM8.38277 18.132C8.68277 17.922 7.76177 17.972 8.38277 18.132ZM9.34877 18.725C9.77877 18.563 8.65277 18.562 9.34877 18.725ZM6.76477 16.952C7.23077 17.31 8.64477 16.998 7.47877 16.739C6.94877 16.456 5.75177 16.263 6.56677 16.909L6.76477 16.952ZM10.0048 18.93C10.1978 18.6 9.18977 18.74 10.0048 18.93ZM9.02077 18.147C10.1608 18.47 8.06277 17.427 8.73977 18.029L8.88977 18.097L9.02077 18.147ZM10.9938 19.287C12.0738 19.297 10.0188 19.14 10.9938 19.287ZM6.34977 16.327C6.30777 16.127 6.08377 16.345 6.34977 16.327ZM12.8198 20.312C12.8478 19.949 12.4668 20.582 12.8198 20.312ZM8.18977 17.456C8.12577 17.265 7.85377 17.448 8.18977 17.456ZM6.45177 16.202C7.07177 16.165 5.60377 15.929 6.45177 16.202ZM4.39177 14.87C4.31477 14.573 3.71777 14.336 4.39177 14.87ZM9.79877 18.305C9.74477 18.333 9.68477 18.175 9.79877 18.305ZM13.1648 20.37C13.1548 20.173 12.9818 20.445 13.1648 20.37ZM9.50077 17.997C9.56077 17.742 8.97277 17.92 9.50077 17.997ZM6.99477 16.405C7.45477 16.355 6.25477 16.094 6.99477 16.405ZM11.2358 19.042C11.9538 18.757 10.5358 18.902 11.2358 19.042ZM9.02977 17.545C9.85677 17.651 8.04477 16.982 8.84877 17.485L9.02977 17.545ZM11.9058 19.313C12.6788 18.851 12.4238 20.395 13.2168 19.443C13.9988 18.873 12.5418 20.15 13.5068 19.546C14.2028 19.079 15.2328 19.766 15.8828 19.991C16.3508 19.968 16.8058 20.396 17.2858 20.136C18.2088 19.886 15.4798 19.766 16.1958 19.326C15.3508 19.571 14.7258 19.032 14.3108 18.491C13.3628 18.271 12.2668 17.788 11.7938 16.949C11.6018 16.634 12.0738 16.993 11.6278 16.479C11.0578 15.971 10.7718 15.394 10.3878 14.777C9.93077 14.533 9.87777 13.814 9.83077 14.753C9.83477 14.16 9.27777 13.761 9.14277 13.927C9.14077 13.356 9.73777 13.642 9.31877 13.22C9.22877 12.628 8.93277 12.01 8.84377 11.343C8.70577 11.021 8.82377 10.332 8.37077 11.061C8.20577 11.831 8.31577 10.114 8.57277 10.681C8.90977 10.101 8.45277 10.171 8.43277 10.251C8.65277 9.76302 8.57277 9.07102 8.37577 9.33502C8.49277 8.81802 8.56077 7.43302 8.20077 7.67902C8.41877 7.13902 8.61477 5.20602 7.66677 5.94302C7.28277 5.94802 6.61877 6.08302 6.30377 6.23902C7.28977 6.78202 6.20377 6.43502 5.80377 6.34902C5.75177 6.85102 5.35377 6.63402 4.85777 6.63902C5.65077 6.73702 4.47177 7.44902 4.01677 7.17302C3.42677 7.45502 4.52677 8.16002 4.02877 8.37802C4.08877 8.70602 3.12377 8.25802 3.19877 9.01802C2.62577 8.77702 3.12077 9.91802 3.40777 9.53202C4.38277 9.79602 4.09377 10.398 4.11777 10.969C3.95977 11.302 3.33377 10.186 3.97777 10.238C3.47077 9.41102 3.41677 9.93802 2.99377 10.323C2.89377 10.351 4.07277 10.87 3.33377 11.126C3.98377 11.226 4.00177 11.796 4.13377 12.156C4.52377 12.563 4.44377 11.706 4.91277 12.196C4.61677 11.76 3.34577 10.968 4.36877 11.222C4.36377 10.782 4.18377 10.429 4.49777 10.438C4.80777 9.87602 4.17277 11.825 4.87277 11.11C5.06577 11.025 5.11277 10.547 5.46277 11.155C5.96777 11.653 5.64477 12.013 4.93177 11.558C5.05877 11.991 5.88577 12.145 5.73077 12.823C5.89577 13.418 6.12577 13.199 6.32677 13.165C6.48477 13.743 6.57377 13.318 6.58177 13.042C7.30177 13.197 7.13377 13.622 7.35977 13.922C7.85677 14.146 6.64777 12.4 7.50177 13.396C8.39977 14.206 7.83877 14.546 7.03177 14.416C7.54177 14.375 7.70677 15.106 8.34477 15.08C8.92677 15.357 9.31977 16.42 8.31777 15.977C7.96977 15.664 6.73777 15.277 7.74477 15.873C8.67377 16.303 9.40977 16.561 10.3058 17.1C10.9458 17.558 11.2238 18.082 11.4658 18.186C10.9278 18.443 9.84277 17.98 10.6488 17.838C10.1458 17.747 9.58077 17.493 10.0618 18.118C10.4718 18.461 11.5118 18.424 11.6988 18.463C11.5398 18.811 11.2688 18.839 11.7048 18.866C11.2188 19.126 11.8608 19.165 11.9058 19.313ZM10.9118 16.505C10.6158 16.195 10.5388 15.615 10.8588 16.12C11.0228 16.186 11.3838 17.067 10.9118 16.505ZM14.1498 18.562C14.3348 18.551 14.1558 18.702 14.1498 18.562ZM10.4438 15.746C10.5508 16.106 10.4338 15.278 10.4438 15.746ZM10.1218 15.313C10.5918 15.517 9.74977 14.593 10.1218 15.313ZM6.22177 12.621C6.44077 12.561 6.32977 12.995 6.22177 12.621ZM9.32577 14.303C9.48377 14.727 9.45977 13.799 9.32577 14.303ZM7.13377 12.778C7.45677 13.038 6.97877 12.5 7.13377 12.778ZM9.01577 13.382C8.66377 12.592 9.26577 12.95 9.09377 13.512L9.01577 13.382ZM5.76977 11.217C5.61177 10.957 5.35177 10.197 5.43577 9.96502C5.51177 10.343 6.23977 11.592 5.79277 10.483C5.29877 9.55302 6.38277 10.785 6.49477 11.017C6.54477 11.247 6.18977 10.954 6.43077 11.495C5.99077 10.878 6.17077 11.835 5.76977 11.217ZM4.76677 10.526C4.99677 10.939 4.80677 9.92302 4.76677 10.526ZM5.21677 10.681C5.58277 11.315 5.43277 10.226 5.21677 10.681ZM4.13277 9.84102C3.75877 9.47102 3.48877 9.12802 4.14977 9.61102C4.40477 9.62102 3.58377 8.83302 4.20977 9.36102C4.86977 9.48102 4.53677 10.443 4.13277 9.84102ZM4.70277 9.82602C4.91977 9.61102 4.81777 10.038 4.70277 9.82602ZM5.05277 9.93902C5.45277 10.197 4.72477 9.32202 5.05277 9.93902ZM4.35577 9.27202C3.26977 8.30602 5.72077 9.77802 4.53277 9.45202L4.35577 9.27202ZM7.46577 11.08C6.99577 10.798 7.34277 9.09602 7.50277 10.26C7.95977 10.112 7.47777 10.86 7.81777 10.854C7.76477 11.327 7.61177 11.497 7.46777 11.08H7.46577ZM8.61577 11.76C8.71477 12.11 8.66377 11.247 8.61577 11.76ZM8.41577 11.562C8.46977 11.342 8.42277 11.82 8.41577 11.562ZM4.56977 8.95502C3.87277 7.99202 6.59677 9.92802 5.01677 9.19902C4.85177 9.15602 4.65277 9.13902 4.56977 8.95502ZM6.78577 10.13C6.93277 10.264 6.71977 9.32002 6.78577 10.13ZM8.46777 11.209C8.59777 10.747 8.47777 11.514 8.46777 11.209ZM4.67577 8.58702C5.09077 8.49902 6.39377 9.31602 5.19577 8.82102C5.06377 8.67302 4.77977 8.74102 4.67577 8.58702ZM8.23577 10.362C8.27977 9.53202 8.48377 9.86702 8.23777 10.48L8.23577 10.362ZM4.98477 8.29902C5.15377 8.05102 4.53477 7.17902 5.07377 7.98602C5.30577 8.17102 5.74577 8.29602 5.35677 8.37302C5.96677 8.91202 5.20677 8.51902 4.98477 8.29902ZM8.05977 10.103C8.17677 9.15902 8.16277 10.656 8.05977 10.103ZM4.63177 7.42702C4.76077 7.37202 4.69977 7.59902 4.63177 7.42702ZM5.43377 7.90502C5.81377 8.38802 5.63977 7.47102 5.43377 7.90502ZM7.69677 9.16402C7.73977 9.40602 7.69477 8.99702 7.69677 9.16402ZM7.56577 8.87402C7.85777 9.28402 7.25177 8.09802 7.56577 8.87402ZM7.37277 8.36402C7.55277 8.76802 7.31977 8.04402 7.37277 8.36402ZM7.68677 7.85402C7.47077 7.47402 7.95877 6.18102 8.01277 6.98402C7.78577 7.60902 7.94777 7.95902 8.10577 7.12002C8.39877 6.46002 8.04277 8.42302 7.68577 7.85502L7.68677 7.85402ZM8.00877 5.93102C8.10277 5.81602 8.02877 6.07002 8.00877 5.93102ZM7.46977 16.544C7.48577 16.614 7.34177 16.433 7.46977 16.544ZM8.57977 17.104C9.19477 17.264 9.19177 17.009 8.63477 16.934C8.33477 16.654 7.38877 16.359 8.23477 16.899C8.29177 17.041 8.46977 17.038 8.57877 17.105L8.57977 17.104ZM6.38877 15.65C6.72877 15.903 7.66877 16.369 6.87277 15.746C7.14177 15.434 6.35877 15.268 6.61877 15.06C5.95877 14.656 6.09877 14.692 6.56077 14.704C5.76677 14.35 6.67477 14.376 6.63077 14.194C6.32577 14.134 5.11077 13.654 5.82677 14.234C5.10077 13.864 5.65377 14.372 5.43477 14.318C4.69177 14.116 6.09477 14.883 5.31677 14.693C5.74177 15.03 6.46277 15.557 5.49677 15.05C5.36877 15.233 6.18677 15.51 6.38877 15.65ZM7.54877 16.317C8.95877 16.771 6.85777 15.761 7.54877 16.317ZM13.4888 19.915C13.5088 19.635 13.2958 20.155 13.4888 19.915ZM14.0998 20.172C14.4248 19.857 14.1128 20.675 14.6398 20.095C14.6448 19.68 14.6228 19.435 14.0338 19.939C13.8718 20.029 13.7998 20.412 14.0998 20.172ZM4.40777 14.085C4.30777 13.692 3.70777 13.695 4.40777 14.085ZM5.05977 14.513C4.81777 14.111 4.19577 14.149 5.05977 14.513ZM8.76977 16.75C9.13177 17.07 10.4318 16.986 9.20977 16.79C9.02777 16.52 8.05877 16.586 8.76977 16.75ZM13.8668 19.899C14.4248 19.431 13.3268 20.107 13.8668 19.899ZM15.0268 20.695C15.0298 20.545 14.7868 20.761 15.0268 20.695ZM15.0278 20.485C15.6448 19.831 14.4298 20.524 15.0278 20.485ZM2.80477 12.743C2.27877 11.993 2.47777 11.655 1.96977 11.043C1.87377 10.573 1.09977 9.51002 1.56977 10.637C1.99977 11.296 2.12777 12.316 2.80477 12.743ZM14.8348 20.277C15.9698 19.543 14.3688 19.957 14.8348 20.277ZM15.7008 20.617C16.2708 20.129 15.3408 20.515 15.7008 20.617ZM4.21477 13.255C4.37777 13.013 3.79477 13.224 4.21477 13.255ZM15.5198 20.384C16.0708 20.029 15.3938 20.084 15.4198 20.416L15.5198 20.384ZM8.04977 15.674C8.02977 15.434 7.75877 15.694 8.04977 15.674ZM8.50977 15.941C8.36477 15.644 8.28577 15.988 8.50977 15.941ZM16.4038 20.625C17.1088 20.115 15.9758 20.527 16.2558 20.721L16.4038 20.625ZM16.1338 20.495C16.7078 20.013 15.5268 20.708 16.1338 20.495ZM17.5138 21.413C17.8998 21.155 17.0448 21.33 17.5138 21.413ZM4.56977 13.08C5.08677 13.196 6.63577 14.354 5.72177 13.16C5.25377 13.022 5.53477 11.877 5.05677 12.08C5.37677 12.615 5.32077 12.843 4.64677 12.506C3.80177 12.093 4.17277 12.71 4.33677 12.88C4.11277 12.932 4.63577 13.076 4.56977 13.08ZM2.21377 11.22C2.30577 10.837 1.36077 9.11302 1.76777 10.356C1.91377 10.616 1.89777 11.11 2.21377 11.22ZM6.53777 13.886C6.52477 13.854 6.27177 13.663 6.53777 13.886ZM7.19377 14.038C7.19377 13.633 6.46877 13.874 7.19377 14.038ZM12.8748 17.621C12.7668 17.343 12.4468 17.615 12.8748 17.621ZM13.1478 17.82C13.1078 17.665 12.9908 17.85 13.1478 17.82ZM15.3998 19.24C15.6158 19.08 15.1298 19.22 15.3998 19.24ZM3.38977 11.52C4.00977 11.28 2.72577 11.35 3.38977 11.52ZM12.3738 17.182C12.3668 16.781 11.9788 17.282 12.3738 17.182ZM3.14377 10.951C3.54277 10.816 2.77677 10.861 3.14377 10.951ZM4.29977 11.511C4.29277 11.378 4.17777 11.561 4.29977 11.511ZM18.3898 20.151C18.9018 20.047 20.0678 20.411 20.2558 20.015C19.6358 20 18.1058 19.577 18.0338 20.115L18.1698 20.138L18.3898 20.151ZM4.66677 11.603C4.67577 11.196 4.34977 11.588 4.66677 11.603ZM1.62977 9.49502C1.49177 8.72002 1.10477 9.37702 1.62977 9.49502ZM2.35377 9.67702C2.36277 9.42702 1.69077 9.45302 2.35377 9.67702ZM2.76777 9.88002C2.67377 10.002 2.64777 9.78302 2.76777 9.88002ZM5.37277 11.55C5.49477 11.438 5.08277 11.467 5.37277 11.55ZM2.49277 9.42202C2.42277 8.83702 1.65277 9.33402 2.49277 9.42202ZM1.00677 8.45802C0.986768 8.18802 0.862768 8.56002 1.00677 8.45802ZM1.22677 8.29102C1.19177 7.97102 1.03677 8.33102 1.22677 8.29102ZM2.44677 9.02002C2.96477 8.81702 1.50677 8.60002 2.34277 8.98002L2.44677 9.02002ZM18.7808 19.109C19.1108 18.806 18.3608 19.015 18.7808 19.109ZM20.7548 20.132C20.8868 19.74 20.4208 20.182 20.7548 20.132ZM2.57277 8.38002C2.62777 8.00002 2.16277 8.45502 2.57277 8.38002ZM0.836768 7.21802C0.743768 6.68302 0.756768 5.74402 1.64877 6.06202C0.457768 6.29802 2.47277 7.54202 2.21877 6.56002C2.71877 6.58402 3.19877 6.26402 2.93477 6.75002C3.92177 6.64002 4.60477 5.78602 5.55877 5.90502C6.30077 5.80702 7.11277 5.73302 7.91277 5.43402C8.57077 5.38602 9.20277 4.67802 8.84277 4.25902C7.94677 4.18302 7.00777 4.29502 6.01577 4.49202C4.91777 4.72002 3.91977 5.15402 2.81077 5.34102C1.73077 5.48602 3.02777 5.74102 2.71877 5.79702C2.15477 5.99302 3.39077 6.12502 2.64577 6.33102C2.18577 6.24302 1.70577 6.08502 1.90277 5.60102C0.867768 5.73402 -0.0422323 6.16402 0.775768 7.21702H0.835768L0.836768 7.21802ZM3.33077 5.94802C3.57377 5.05402 4.63077 6.68302 3.72877 6.06602C3.62077 5.98602 3.44377 5.92002 3.33077 5.94602V5.94802ZM3.37777 5.51402C3.72777 5.25402 3.56377 5.66002 3.37777 5.51402ZM3.82277 5.52202C3.85477 5.11102 4.84077 5.74002 3.98577 5.67002L3.82277 5.52202ZM4.43077 5.27702C4.65277 5.01702 4.49477 5.50702 4.43077 5.27702ZM4.58677 5.17302C4.95677 4.72902 6.68177 4.89002 5.41877 5.13002C5.08077 4.87502 4.82077 5.28002 4.58677 5.17302ZM6.83677 4.82602C7.95577 5.25802 6.78177 3.61202 6.83677 4.82602ZM7.47677 4.82202C7.70977 4.21002 8.38277 4.57702 7.58477 4.69902C7.60177 4.76402 7.56077 5.01502 7.47677 4.82202ZM2.32177 8.06702C3.01877 7.64002 1.58077 7.69702 2.32177 8.06702ZM2.83677 8.21102C3.08177 7.95102 2.30577 8.10502 2.83677 8.21102ZM1.31677 7.13102C1.71577 6.82602 0.845768 7.01502 1.31677 7.13102ZM21.9188 20.021C21.9308 19.666 21.6148 20.181 21.9188 20.021ZM19.8258 18.591C19.8858 18.183 19.5558 18.628 19.8258 18.591ZM22.4958 20.159C23.0528 20.159 24.1838 19.986 22.9708 19.986C22.7808 20.016 21.8628 20.01 22.4958 20.159ZM3.28977 7.95902C3.73977 7.92902 3.99577 7.46202 3.20277 7.48902C1.97277 7.36202 4.28677 7.90902 3.04477 7.75302C2.87777 7.86302 3.28077 7.99002 3.28977 7.96002V7.95902ZM3.68777 8.16102C3.63977 7.87102 3.54777 8.31502 3.68777 8.16102ZM4.15777 6.90402C4.35477 6.66102 3.88777 6.83902 4.15777 6.90402ZM2.65777 4.39602C3.46377 4.12202 4.56477 3.81502 4.94477 4.53102C4.55777 4.06502 4.78877 3.60702 5.15477 4.28802C5.67077 4.97702 5.92977 3.97502 5.59277 3.74302C5.97577 4.21902 6.41177 4.44302 5.84977 3.77302C6.45977 3.03902 4.62677 3.87002 4.20977 3.86102C4.00977 3.95102 2.13777 4.33802 2.65777 4.39602ZM3.12977 3.49302C3.58977 3.14602 4.71777 3.69902 3.99377 3.14802C3.92377 3.08602 2.40777 3.56602 3.12977 3.49302ZM4.80377 3.56202C5.34177 3.57502 4.57277 2.84002 5.21277 3.17202C5.10777 2.82902 4.46677 2.76502 4.15277 2.62802C3.97677 2.94202 4.51377 3.56602 4.80377 3.56202ZM3.42377 2.04202C3.60977 1.79002 3.09777 2.17002 3.42377 2.04202ZM4.10777 2.20602C4.97377 2.09102 3.88777 1.83302 3.93377 2.19602L4.10777 2.20602ZM2.83077 1.20602C2.22077 0.410021 3.97677 1.34002 3.35777 0.506021C2.83577 0.0910206 2.33477 0.974021 2.83077 1.20602ZM10.6548 5.42102C10.9348 4.92502 9.49977 4.75302 10.4668 5.24602C10.5568 5.27602 10.5368 5.45602 10.6548 5.42102Z" fill="#565656"/>
    </svg>
    