<svg width="24" height="24" viewBox="0 0 24 24" fill="none" xmlns="http://www.w3.org/2000/svg">
    <g clip-path="url(#clip0_664_195)">
    <path d="M12.0018 0C11.4346 0 10.8907 0.225306 10.4896 0.626352C10.0886 1.0274 9.86329 1.57133 9.86329 2.1385C9.86329 2.70567 10.0886 3.2496 10.4896 3.65065C10.8907 4.05169 11.4346 4.277 12.0018 4.277C12.569 4.277 13.1129 4.05169 13.5139 3.65065C13.915 3.2496 14.1403 2.70567 14.1403 2.1385C14.1403 1.57133 13.915 1.0274 13.5139 0.626352C13.1129 0.225306 12.569 0 12.0018 0ZM20.5418 4.931C19.9746 4.931 19.4307 5.15631 19.0296 5.55735C18.6286 5.9584 18.4033 6.50233 18.4033 7.0695C18.4033 7.63667 18.6286 8.1806 19.0296 8.58165C19.4307 8.98269 19.9746 9.208 20.5418 9.208C21.109 9.208 21.6529 8.98269 22.0539 8.58165C22.455 8.1806 22.6803 7.63667 22.6803 7.0695C22.6803 6.50233 22.455 5.9584 22.0539 5.55735C21.6529 5.15631 21.109 4.931 20.5418 4.931ZM20.5418 14.793C19.9746 14.793 19.4307 15.0183 19.0296 15.4194C18.6286 15.8204 18.4033 16.3643 18.4033 16.9315C18.4033 17.4987 18.6286 18.0426 19.0296 18.4436C19.4307 18.8447 19.9746 19.07 20.5418 19.07C21.109 19.07 21.6529 18.8447 22.0539 18.4436C22.455 18.0426 22.6803 17.4987 22.6803 16.9315C22.6803 16.3643 22.455 15.8204 22.0539 15.4194C21.6529 15.0183 21.109 14.793 20.5418 14.793ZM12.0018 19.724C11.4348 19.724 10.8909 19.9493 10.49 20.3502C10.089 20.7512 9.86379 21.295 9.86379 21.862C9.86379 22.429 10.089 22.9728 10.49 23.3738C10.8909 23.7747 11.4348 24 12.0018 24C12.5688 24 13.1126 23.7747 13.5136 23.3738C13.9145 22.9728 14.1398 22.429 14.1398 21.862C14.1398 21.295 13.9145 20.7512 13.5136 20.3502C13.1126 19.9493 12.5688 19.724 12.0018 19.724ZM3.45979 14.794C3.17902 14.794 2.90101 14.8493 2.64161 14.9567C2.38222 15.0642 2.14653 15.2217 1.94799 15.4202C1.74946 15.6187 1.59198 15.8544 1.48453 16.1138C1.37709 16.3732 1.32179 16.6512 1.32179 16.932C1.32179 17.2128 1.37709 17.4908 1.48453 17.7502C1.59198 18.0096 1.74946 18.2453 1.94799 18.4438C2.14653 18.6423 2.38222 18.7998 2.64161 18.9073C2.90101 19.0147 3.17902 19.07 3.45979 19.07C4.02695 19.07 4.57089 18.8447 4.97194 18.4436C5.37298 18.0426 5.59829 17.4987 5.59829 16.9315C5.59829 16.3643 5.37298 15.8204 4.97194 15.4194C4.57089 15.0183 4.02695 14.794 3.45979 14.794ZM3.45979 4.931C2.89262 4.931 2.34869 5.15631 1.94764 5.55735C1.54659 5.9584 1.32129 6.50233 1.32129 7.0695C1.32129 7.63667 1.54659 8.1806 1.94764 8.58165C2.34869 8.98269 2.89262 9.208 3.45979 9.208C4.02695 9.208 4.57089 8.98269 4.97194 8.58165C5.37298 8.1806 5.59829 7.63667 5.59829 7.0695C5.59829 6.50233 5.37298 5.9584 4.97194 5.55735C4.57089 5.15631 4.02695 4.931 3.45979 4.931ZM12.0018 1.553L2.95279 6.777V17.225L12.0018 22.449L21.0488 17.225V6.777L12.0018 1.553ZM12.0018 3.154L19.6618 16.424H4.33979L12.0018 3.154ZM10.6148 3.525L3.96979 15.037V7.363L10.6148 3.525ZM13.3888 3.525L20.0348 7.363V15.037L13.3888 3.525ZM5.35479 17.44H18.6478L12.0018 21.276L5.35479 17.44Z" fill="#565656"/>
    </g>
    <defs>
    <clipPath id="clip0_664_195">
    <rect width="24" height="24" fill="white"/>
    </clipPath>
    </defs>
    </svg>
    