<svg width="24" height="24" viewBox="0 0 24 24" fill="none" xmlns="http://www.w3.org/2000/svg">
    <g clip-path="url(#clip0_672_150)">
    <path d="M8.71693 18.5551C8.71693 18.5551 7.79443 19.1161 9.35818 19.2766C11.2407 19.5166 12.2434 19.4768 14.3269 19.0763C14.7457 19.3328 15.1885 19.5475 15.6492 19.7176C10.9617 21.7216 5.02993 19.5976 8.71693 18.5551ZM8.11693 15.9503C8.11693 15.9503 7.11493 16.7116 8.67793 16.8728C10.7217 17.0731 12.3244 17.1128 15.0904 16.5526C15.3594 16.8254 15.6888 17.0312 16.0519 17.1533C10.4014 18.8363 4.06993 17.3131 8.11693 15.9503ZM19.1772 20.5178C19.1772 20.5178 19.8582 21.0788 18.4159 21.5198C15.7309 22.3223 7.15543 22.5623 4.75093 21.5198C3.90943 21.1598 5.51218 20.6386 6.02593 20.5583C6.54718 20.4383 6.82843 20.4383 6.82843 20.4383C5.90593 19.7971 0.697178 21.7606 4.18393 22.3208C13.7614 23.8838 21.6559 21.6398 19.1712 20.5178H19.1772ZM9.15043 13.2248C9.15043 13.2248 4.78243 14.2673 7.58743 14.6273C8.78968 14.7878 11.1537 14.7473 13.3579 14.5876C15.1609 14.4271 16.9654 14.1076 16.9654 14.1076C16.9654 14.1076 16.3242 14.3881 15.8832 14.6686C11.4357 15.8311 2.89918 15.3098 5.34418 14.1076C7.42768 13.1056 9.15118 13.2263 9.15118 13.2263L9.15043 13.2248ZM16.9654 17.5928C21.4534 15.2678 19.3699 13.0253 17.9269 13.3051C17.5669 13.3853 17.4057 13.4656 17.4057 13.4656C17.4057 13.4656 17.5257 13.2256 17.8062 13.1453C20.6517 12.1433 22.8957 16.1506 16.8837 17.7128C16.8837 17.7128 16.9234 17.6731 16.9639 17.5928H16.9654ZM9.59293 23.9243C13.9204 24.2048 20.5332 23.7638 20.6929 21.7193C20.6929 21.7193 20.3727 22.5218 17.1267 23.1218C13.4397 23.8028 8.87143 23.7218 6.18643 23.2823C6.18643 23.2823 6.74743 23.7631 9.59293 23.9243Z" fill="#565656"/>
    <path d="M14.2466 0.000732422C14.2466 0.000732422 16.7313 2.52523 11.8826 6.33223C7.99531 9.41773 11.0013 11.181 11.8826 13.185C9.59806 11.1412 7.95556 9.33748 9.07756 7.65523C10.7201 5.16973 15.2486 3.97498 14.2466 0.000732422ZM12.9716 11.502C14.1341 12.8242 12.6513 14.0265 12.6513 14.0265C12.6513 14.0265 15.6168 12.504 14.2541 10.62C13.0121 8.81698 12.0491 7.93498 17.2593 4.92973C17.2593 4.92973 9.04456 6.97348 12.9716 11.502Z" fill="#565656"/>
    </g>
    <defs>
    <clipPath id="clip0_672_150">
    <rect width="24" height="24" fill="white"/>
    </clipPath>
    </defs>
    </svg>
    