<svg width="24"
     height="24"
     viewBox="0 0 24 24"
     fill="none"
     xmlns="http://www.w3.org/2000/svg">
    <g clip-path="url(#clip0_682_264)">
        <path d="M19.6547 14.262C19.9357 14.262 20.2117 14.285 20.4827 14.326C20.4827 14.331 20.4777 14.336 20.4777 14.34C20.3727 14.607 20.2437 14.874 20.0967 15.126L18.8777 17.232C17.7657 19.168 15.7007 20.359 13.4667 20.359H11.0347C8.8047 20.359 6.7407 19.168 5.6227 17.232L4.4047 15.126C3.85588 14.1756 3.56694 13.0975 3.56694 12C3.56694 10.9025 3.85588 9.82439 4.4047 8.874L5.6227 6.768C6.7357 4.832 8.7997 3.641 11.0347 3.641H13.4667C15.6967 3.641 17.7607 4.832 18.8777 6.768L20.0967 8.874C20.2437 9.126 20.3677 9.393 20.4777 9.66C20.4777 9.664 20.4827 9.669 20.4827 9.674C20.2157 9.715 19.9397 9.738 19.6547 9.738C17.8387 9.738 17.1537 9.131 16.3637 8.432C15.5997 7.756 14.6527 6.915 12.9237 6.915H11.8947C10.6437 6.915 9.5077 7.37 8.6947 8.193C7.8987 8.998 7.4617 10.097 7.4617 11.292V12.703C7.4617 13.899 7.8987 14.998 8.6947 15.802C9.5077 16.625 10.6437 17.08 11.8947 17.08H12.9287C14.6577 17.08 15.6047 16.239 16.3677 15.563C17.1587 14.86 17.8387 14.257 19.6547 14.262ZM19.6597 11.025C20.0587 11.025 20.4537 10.989 20.8387 10.915C20.8367 10.911 20.8367 10.905 20.8367 10.901C20.7637 10.487 20.6437 10.078 20.4877 9.683C21.2187 9.563 21.8947 9.287 22.4737 8.864C22.4737 8.86 22.4687 8.851 22.4687 8.846C22.1377 7.761 21.6367 6.745 20.9797 5.816C20.3307 4.901 19.5447 4.097 18.6487 3.421C16.7817 2.023 14.5607 1.283 12.2207 1.283C10.7727 1.283 9.3657 1.563 8.0457 2.124C6.7727 2.667 5.6227 3.439 4.6387 4.423C3.6547 5.407 2.8777 6.552 2.3407 7.83C1.7837 9.154 1.4987 10.556 1.4987 12.005C1.4987 13.453 1.7797 14.86 2.3407 16.179C2.8827 17.453 3.6547 18.602 4.6387 19.586C5.6227 20.57 6.7677 21.347 8.0457 21.885C9.3697 22.441 10.7727 22.726 12.2207 22.726C14.5607 22.726 16.7817 21.986 18.6487 20.589C19.5452 19.916 20.3316 19.1076 20.9797 18.193C21.6317 17.264 22.1377 16.244 22.4687 15.163C22.4687 15.159 22.4737 15.149 22.4737 15.145C21.8947 14.722 21.2187 14.446 20.4877 14.326C20.6487 13.931 20.7637 13.522 20.8367 13.108C20.8417 13.099 20.8417 13.094 20.8417 13.085C21.7107 13.251 22.5337 13.591 23.2457 14.12C23.9307 14.625 23.7977 15.195 23.6917 15.536C22.1837 20.437 17.6187 24 12.2207 24C5.5957 24 0.220703 18.625 0.220703 12C0.220703 5.375 5.5907 0 12.2207 0C17.6187 0 22.1837 3.563 23.6917 8.464C23.7977 8.805 23.9307 9.379 23.2457 9.885C22.5287 10.414 21.7107 10.758 20.8417 10.919C20.9697 11.635 20.9697 12.369 20.8417 13.085C20.4547 13.011 20.0597 12.975 19.6597 12.975C15.4757 12.975 15.6917 15.798 12.9237 15.798H11.8947C9.9957 15.798 8.7447 14.441 8.7447 12.703V11.292C8.7447 9.554 9.9957 8.198 11.8947 8.198H12.9287C15.6967 8.198 15.4807 11.021 19.6597 11.025Z"
              fill="#006BFF" />
    </g>
    <defs>
        <clipPath id="clip0_682_264">
            <rect width="24"
                  height="24"
                  fill="white" />
        </clipPath>
    </defs>
</svg>