<svg width="18" height="22" viewBox="0 0 18 22" fill="none" xmlns="http://www.w3.org/2000/svg">
    <path d="M0 0V22H5.00947V14.2688H7.71403L12.0009 22H18L13.1538 13.5135C14.4002 12.916 15.442 11.9531 16.1452 10.7488C16.7848 9.63967 17.1033 8.393 17.1033 7.00883C17.1033 5.66867 16.7848 4.47242 16.1452 3.42467C15.5056 2.35675 14.6189 1.51892 13.484 0.911167C12.3717 0.303417 11.1249 0 9.7429 0H0ZM5.00947 4.46417H8.81552C9.47497 4.46417 10.0325 4.57875 10.4853 4.80883C10.9599 5.03983 11.3198 5.37533 11.5679 5.81533C11.8151 6.23425 11.9396 6.7265 11.9396 7.29208C11.9396 7.85767 11.8259 8.36 11.5986 8.8C11.392 9.24 11.0825 9.58467 10.6694 9.83583C10.2779 10.0668 9.81416 10.1842 9.2783 10.1842H5.00947V4.46417Z" fill="white"/>
    </svg>
    