<svg width="103" height="34" viewBox="0 0 103 34" fill="none" xmlns="http://www.w3.org/2000/svg">
    <path d="M1.74512 27.3771V6.76575H10.0328C14.511 6.76575 17.5062 9.44525 17.5062 13.6264C17.5062 16.2765 16.1394 18.3965 14.0167 19.4271L18.0296 27.3771H13.2024L9.77107 20.4576H6.10704V27.3771H1.74512ZM9.68379 10.4463H6.10704V16.777H9.68379C11.7485 16.777 13.057 15.5404 13.057 13.6264C13.057 11.6831 11.7485 10.4463 9.68379 10.4463ZM26.7021 27.5538C21.7295 27.5538 18.7343 24.521 18.7343 19.8393C18.7343 15.1281 21.7877 12.0658 26.4113 12.0658C30.8895 12.0658 33.9138 14.8925 33.9719 19.3387C33.9719 19.7804 33.9428 20.281 33.8556 20.7521H23.009V20.9582C23.0962 23.1077 24.463 24.4032 26.5276 24.4032C28.1851 24.4032 29.3483 23.6671 29.6972 22.2538H33.7393C33.274 25.1982 30.686 27.5538 26.7021 27.5538ZM23.0962 18.0431H29.8427C29.5519 16.1881 28.3015 15.1575 26.4404 15.1575C24.6665 15.1575 23.3289 16.247 23.0962 18.0431ZM35.4012 22.3421H39.2978C39.4432 23.6671 40.5773 24.5799 42.5838 24.5799C44.2995 24.5799 45.3463 24.0205 45.3463 22.9604C45.3463 21.7238 44.3285 21.6354 41.915 21.3115C38.4254 20.8993 35.721 20.1043 35.721 16.9831C35.721 13.9798 38.3091 12.0069 42.1476 12.0364C46.1606 12.0364 48.9231 13.8325 49.1266 16.9242H45.2009C45.0846 15.717 43.9505 14.9808 42.293 14.9808C40.6936 14.9808 39.6468 15.5698 39.6468 16.5414C39.6468 17.6898 40.9262 17.8076 43.0781 18.0726C46.5095 18.4259 49.3593 19.2209 49.3593 22.6365C49.3593 25.64 46.5677 27.5538 42.5547 27.5538C38.3963 27.5538 35.5757 25.5811 35.4012 22.3421ZM58.9053 27.5538C53.9327 27.5538 50.9375 24.521 50.9375 19.8393C50.9375 15.1281 53.9909 12.0658 58.6145 12.0658C63.0927 12.0658 66.117 14.8925 66.1752 19.3387C66.1752 19.7804 66.1461 20.281 66.0588 20.7521H55.2122V20.9582C55.2994 23.1077 56.6661 24.4032 58.7308 24.4032C60.3884 24.4032 61.5515 23.6671 61.9005 22.2538H65.9425C65.4772 25.1982 62.8892 27.5538 58.9053 27.5538ZM55.2994 18.0431H62.0458C61.7551 16.1881 60.5047 15.1575 58.6435 15.1575C56.8697 15.1575 55.532 16.247 55.2994 18.0431ZM76.9942 12.0658C80.2222 12.0658 82.9847 13.8031 82.9847 18.9854V27.3771H78.8846V19.3976C78.8846 16.8359 77.9247 15.4815 75.8598 15.4815C73.7374 15.4815 72.5158 17.0126 72.5158 19.6331V27.3771H68.4158V12.2425H71.9925L72.3709 14.127C73.3302 12.9492 74.6973 12.0658 76.9942 12.0658ZM96.3582 14.127V6.76575H100.458V27.3771H96.8815L96.4743 25.2866C95.4855 26.5821 94.0318 27.5538 91.8798 27.5538C87.8669 27.5538 84.93 24.5799 84.93 19.7804C84.93 15.0986 87.8669 12.0658 91.8509 12.0658C93.9151 12.0658 95.3983 12.8903 96.3582 14.127ZM92.7814 24.1677C95.0206 24.1677 96.4159 22.401 96.4159 19.8393C96.4159 17.2481 95.0206 15.452 92.7814 15.452C90.5422 15.452 89.1173 17.2187 89.1173 19.8098C89.1173 22.401 90.5422 24.1677 92.7814 24.1677Z" fill="white"/>
    </svg>
    