<svg width="18" height="24" viewBox="0 0 18 24" fill="none" xmlns="http://www.w3.org/2000/svg">
    <path d="M12.8522 8.981H8.26423V0H12.8522C15.3282 0 17.3422 2.014 17.3422 4.49C17.3422 6.966 15.3282 8.981 12.8522 8.981ZM9.73523 7.51H12.8522C14.5172 7.51 15.8712 6.155 15.8712 4.491C15.8712 2.827 14.5162 1.472 12.8522 1.472H9.73523V7.51ZM9.73523 8.981H5.14823C2.67223 8.981 0.658226 6.967 0.658226 4.491C0.658226 2.015 2.67223 0 5.14823 0H9.73623V8.981H9.73523ZM5.14823 1.471C3.48323 1.471 2.12923 2.826 2.12923 4.49C2.12923 6.154 3.48323 7.51 5.14823 7.51H8.26523V1.471H5.14823ZM9.73523 16.49H5.14823C2.67223 16.49 0.658226 14.476 0.658226 12C0.658226 9.524 2.67223 7.51 5.14823 7.51H9.73623V16.49H9.73523ZM5.14823 8.981C3.48323 8.981 2.12923 10.336 2.12923 12C2.12923 13.664 3.48423 15.019 5.14823 15.019H8.26523V8.981H5.14823ZM5.17223 24C2.68323 24 0.657227 21.986 0.657227 19.51C0.657227 17.034 2.67123 15.02 5.14723 15.02H9.73523V19.461C9.73523 21.964 7.68823 24 5.17223 24ZM5.14823 16.49C4.34786 16.4911 3.58058 16.8095 3.01464 17.3754C2.4487 17.9414 2.13029 18.7086 2.12923 19.509C2.12923 21.174 3.49423 22.528 5.17323 22.528C6.87823 22.528 8.26623 21.152 8.26623 19.46V16.49H5.14823ZM12.8522 16.49H12.7542C10.2782 16.49 8.26423 14.476 8.26423 12C8.26423 9.524 10.2782 7.51 12.7542 7.51H12.8522C15.3282 7.51 17.3422 9.524 17.3422 12C17.3422 14.476 15.3282 16.49 12.8522 16.49ZM12.7552 8.981C11.0902 8.981 9.73623 10.336 9.73623 12C9.73623 13.664 11.0912 15.019 12.7552 15.019H12.8532C14.5182 15.019 15.8722 13.664 15.8722 12C15.8722 10.336 14.5162 8.981 12.8522 8.981H12.7552Z" fill="#565656"/>
    </svg>
    