<svg width="24" height="28" viewBox="0 0 24 28" fill="none" xmlns="http://www.w3.org/2000/svg">
    <g clip-path="url(#clip0_668_235)">
    <path d="M20.1654 12.3281C20.9572 12.703 23.0529 14.3908 23.4565 14.8908C23.8757 15.3908 23.9998 14.6095 23.5652 13.3126C23.2238 12.2656 22.3543 10.8436 20.8951 9.62474C20.0413 8.92155 18.1629 7.90588 17.0142 7.31201C16.7813 7.18696 13.7696 5.90562 11.084 5.26495C10.8511 5.20243 11.3634 5.6556 11.441 5.90562C11.8447 7.09321 19.9016 12.1874 19.9016 12.1874L20.1654 12.3281ZM8.8175 26.6574C8.6778 27.5013 8.80196 27.5638 9.67126 27.6732C10.5406 27.7826 11.1771 27.4544 11.4099 27.2357C11.6429 27.0168 11.6894 26.5325 11.4565 26.095C11.3167 25.8136 11.177 25.7199 11.0994 25.3761C11.0218 25.048 10.9597 24.9698 10.8976 24.8448C10.8356 24.7354 10.82 24.626 10.8045 23.8603C10.7889 23.0947 10.8045 21.657 10.7268 21.0476C10.6492 20.4226 7.96352 21.3289 7.96352 21.3289C7.96352 21.3289 8.60007 22.9228 8.77079 23.3134C8.94158 23.7041 8.92603 24.4541 8.92603 24.6104C8.92603 24.7667 8.98807 25.0791 9.03472 25.0948C9.08128 25.1104 8.87947 25.5167 8.97268 25.7511C9.03479 25.9699 8.83298 26.5325 8.8175 26.6574ZM7.79288 2.76472C7.88609 2.17093 7.79288 0.998836 7.66872 0.811415C7.28056 0.280068 5.23145 0.21762 4.79672 0.842639C4.61045 1.12389 4.626 1.78021 4.65702 2.20215C4.68804 2.62402 4.79672 3.53037 4.81227 3.82734C4.82774 4.04614 7.07874 4.38983 7.57551 3.79604C7.71529 3.63984 7.79288 2.76472 7.79288 2.76472ZM3.22884 25.1417C2.28187 25.8293 1.55227 25.9543 1.07105 26.2043C0.589827 26.4544 0.713982 26.9388 1.52125 27.0794C2.17326 27.2044 3.19782 26.9543 3.88085 26.9543C4.56389 26.9543 6.08529 27.0325 6.48892 26.7513C6.95459 26.4232 6.75285 25.8136 6.75285 25.8136C6.62862 25.4699 6.3182 24.7041 6.41133 24.0791C6.50447 23.4541 6.62869 23.1103 6.86153 22.5321C7.09437 21.954 7.26509 20.532 7.04772 20.4538C6.83036 20.3757 6.89255 20.4538 6.61307 20.5163C6.33367 20.5787 6.02317 20.6725 5.41772 20.6725C4.81227 20.6725 4.14478 20.5787 3.91187 20.5319C3.67904 20.4851 3.49277 20.4381 3.57043 20.9226C3.64802 21.407 3.88085 22.3133 3.8964 23.0165C3.91187 23.7197 3.91187 24.5323 3.8653 24.6729C3.81881 24.8135 3.47722 24.9698 3.22884 25.1417Z" fill="#565656"/>
    <path d="M6.55108 4.32724C8.25867 5.8118 11.5653 6.21802 16.4708 8.12446C17.7283 8.60885 21.0814 10.0621 21.8887 11.5779C19.172 9.99967 18.1629 12.1717 17.9456 14.4063C17.7439 16.5002 16.7037 17.5941 14.0336 17.5315C11.2858 17.4691 10.4476 19.0785 9.68693 20.9694C8.21218 13.7343 5.8525 12.328 4.33125 11.0935C1.10219 8.45258 5.07633 3.79589 6.55108 4.32724Z" fill="#565656"/>
    <path d="M6.55148 4.32739C10.6498 5.76501 14.7016 6.12443 19.4673 9.07783C20.6006 9.78102 22.9913 11.3748 23.457 14.4221C21.7184 12.4843 17.6977 10.0467 12.7766 8.49968C10.2928 7.71831 8.47643 7.20269 6.27207 6.34323C6.42725 5.34306 6.42725 4.95241 6.55148 4.32739Z" fill="#565656"/>
    <path d="M1.31921 12.8906C1.31921 12.8906 1.61415 13.9063 2.20406 14.2345C2.20406 14.2345 2.63871 14.3908 3.50801 13.9064C3.7564 13.7657 3.94267 13.2814 3.9272 13.125C3.91165 12.7499 3.67881 12.5781 3.67881 12.5781C3.67881 12.5781 3.43035 12.1561 3.13548 12.1718C2.84045 12.1874 2.34368 12.2342 2.18843 12.0936C2.04881 11.9373 1.28811 12.3749 1.31921 12.8906ZM7.65295 3.06156C7.65295 3.06156 7.71499 3.85858 7.82367 4.35855C7.83922 4.45238 8.30489 4.49917 8.64648 4.63987C7.99447 6.51501 4.0669 6.49936 3.55458 5.57744C3.80296 5.40559 4.29973 5.13992 4.53257 5.04617C4.76548 4.95234 4.74993 4.96799 4.76548 4.53047C4.78095 4.09288 4.81205 3.28036 4.84314 3.06156C4.87416 2.84276 7.28041 2.84276 7.65295 3.06156Z" fill="#565656"/>
    <path d="M7.49849 3.06144C7.49849 3.06144 7.49849 3.51462 7.54506 3.95214C7.56053 4.15529 7.57608 4.28026 7.60709 4.43653C7.62264 4.53036 7.07931 4.90528 6.92406 5.73352C6.17891 7.40551 4.45569 6.57734 3.74164 5.7804C3.99002 5.60847 4.39365 5.3741 4.85933 5.1866C5.09224 5.09278 4.98356 4.8897 4.99903 4.45218C5.01458 4.01466 5.07669 3.37392 5.10771 3.13954C5.13888 2.90517 7.12588 2.84265 7.49849 3.06144Z" fill="#565656"/>
    <path d="M7.65378 3.06156C7.65378 3.06156 7.66933 3.34288 7.71582 3.67101C7.51408 3.87408 7.25015 4.1554 7.04826 4.32733C6.90855 4.45237 6.56711 4.43672 6.25654 4.43672C5.97713 4.43672 5.72875 4.46795 5.62007 4.4055C5.37161 4.28045 5.01462 3.96798 4.8128 3.73353C4.82828 3.45228 4.84382 3.18661 4.85929 3.06156C4.87499 2.84276 7.28124 2.84276 7.65378 3.06156Z" fill="#565656"/>
    <path d="M6.24061 4.24903C6.42696 4.24903 6.64432 4.23345 6.81505 4.20215C6.89271 4.18658 6.97029 4.1397 7.03241 4.1084C7.14109 4.03023 7.24977 3.93656 7.37385 3.84273C7.62231 3.65523 7.63778 3.54583 7.63778 3.49903C7.5291 2.51452 7.66888 1.68635 7.66888 1.68635C7.66888 1.68635 7.77756 1.2644 7.18766 1.155C6.59776 1.0456 6.24069 1.03003 6.24069 1.03003C6.24069 1.03003 5.86808 1.03003 5.29372 1.155C4.70382 1.2644 4.81251 1.68635 4.81251 1.68635C4.81251 1.68635 4.95221 2.51452 4.84352 3.49903C4.84352 3.54583 4.859 3.65523 5.10746 3.84273C5.32482 3.999 5.49554 4.17085 5.66626 4.20215C5.83706 4.23345 6.05442 4.24903 6.24061 4.24903Z" fill="#565656"/>
    <path d="M6.24085 0.623779C7.26541 0.623779 7.4673 0.905026 7.76225 1.21757C7.82429 1.29567 7.7778 1.76449 7.66904 2.76459H7.52934C7.52934 2.76459 7.62255 2.48326 7.607 2.15514C7.59145 1.82702 7.52934 1.84267 7.57598 1.76449C7.63802 1.67067 7.76225 1.51439 7.48277 1.3582C7.20337 1.20192 6.76871 1.48317 6.24085 1.49882C5.71306 1.48317 5.26286 1.20192 4.98346 1.3582C4.70406 1.51439 4.82821 1.67067 4.89025 1.76449C4.95237 1.85824 4.87478 1.82694 4.85923 2.15514C4.84376 2.48326 4.93689 2.76459 4.93689 2.76459H4.79719C4.70406 1.76449 4.64194 1.32697 4.68851 1.2488C4.95244 0.905026 5.2163 0.639353 6.24085 0.623779ZM1.31982 12.9374C1.31982 12.9374 1.61477 13.8906 2.18913 14.2187C2.31336 14.1562 2.29781 14.0625 2.40649 13.9218C2.43759 13.875 2.54627 13.8436 2.59276 13.7968C2.63933 13.7499 2.62378 13.6718 2.70144 13.6093C2.76356 13.5468 2.81012 13.5937 2.87224 13.5468C2.93428 13.4843 2.9499 13.4062 2.99639 13.3594C3.02749 13.3281 3.15164 13.3125 3.18266 13.2812C3.26032 13.203 3.94328 13.0624 3.91226 12.9061C3.85022 12.6717 3.726 12.4998 3.726 12.4998C3.726 12.4998 3.43105 12.0623 3.13617 12.0779C2.84122 12.0935 2.56174 12.1561 2.40649 12.0154C2.23569 11.8591 1.27318 12.4373 1.31982 12.9374Z" fill="#565656"/>
    <path d="M3.33833 6.03063C3.33833 6.03063 2.36035 5.79618 1.69278 6.43693C1.02522 7.09325 1.07186 7.90577 1.2736 8.40581C1.10288 8.60896 0.792382 9.17146 1.02522 9.84343C0.000663996 10.7185 0.450863 12.0624 1.36673 12.9531C1.36673 12.9531 1.5841 12.1405 2.45341 12.0936C2.42239 11.7812 3.26067 11.5311 2.87259 10.7185C3.46249 10.5778 3.44694 10.1715 3.54007 9.67158C3.61774 9.17146 3.33833 6.03063 3.33833 6.03063Z" fill="#565656"/>
    <path d="M3.6944 6.46818C3.6944 6.46818 2.56117 5.89003 1.8936 6.54635C1.22611 7.20267 1.41246 7.92144 1.6142 8.42149C1.44348 8.62456 1.03984 9.20286 1.28823 9.89032C1.33479 10.0466 1.67631 10.0466 1.92477 10.4529C1.30385 10.0934 0.915692 10.1872 0.77599 10.6403C0.558626 11.3435 1.03992 12.1873 1.45902 12.6561C1.45902 12.6405 1.47457 12.6248 1.47457 12.6093C1.53661 12.8437 1.61427 13.2968 2.07995 13.7969C2.31286 14.0469 2.49913 14.0157 2.76306 13.9531C3.07348 13.875 3.18216 13.7343 3.61682 13.5C3.8652 13.3593 3.7255 13.1874 3.7255 13.0468C3.7255 13.0156 3.69448 12.9686 3.64784 12.9062C3.61682 12.828 3.52368 12.7031 3.38398 12.5624C3.38398 12.5624 3.18216 12.2812 2.88714 12.2967C2.59218 12.3124 2.28176 12.2499 2.2041 12.1718C2.2041 11.6248 2.82502 11.6092 2.60773 10.6716C2.59219 10.6247 2.51452 10.5466 2.26621 10.5153C2.63883 10.4372 2.80955 10.4215 3.07348 10.1716C3.25975 9.99972 3.39945 9.78092 3.4461 9.49968C3.53915 9.01528 3.6944 6.46818 3.6944 6.46818Z" fill="#565656"/>
    <path d="M6.97029 5.48375C7.06342 5.3587 7.54464 4.73368 8.46059 4.48366C8.72452 4.40548 8.89524 4.62428 9.1591 4.78055C9.23676 4.73368 9.57828 4.57741 9.76455 4.68673C9.95082 4.79605 10.075 4.90553 10.2613 4.98363C10.3545 4.93675 10.6028 4.93675 10.8047 5.01485C11.0065 5.07737 11.317 5.218 11.6119 5.62429C11.7982 6.29626 8.32089 5.79614 8.32089 5.79614L6.97029 5.48375Z" fill="#565656"/>
    <path d="M6.93959 5.48373C7.43644 5.31181 7.35877 4.73366 8.46099 4.63991C8.67835 4.62426 8.81806 4.79611 8.9733 4.90551C8.89564 4.98369 8.81806 5.10866 8.77149 5.23363C8.91119 5.07744 9.15957 4.87421 9.40803 4.82734C9.64087 4.78054 9.79612 4.95239 10.0445 5.07744C9.99801 5.12423 9.95137 5.20241 9.88933 5.29623C10.1067 5.15561 10.2619 5.10874 10.5568 5.21806C10.7586 5.28051 11.1467 5.45243 11.4417 5.87438C11.6279 6.54635 8.30582 5.7962 8.30582 5.7962L6.93959 5.48373Z" fill="#565656"/>
    <path d="M4.02069 5.73361C4.02069 5.73361 4.02068 5.56169 4.03623 5.40549C4.03623 5.37427 4.16039 5.29609 4.16039 5.26487L4.19141 5.23357C4.19141 5.23357 3.94302 5.09294 3.75675 5.17112C3.55501 5.23356 3.44633 5.49924 3.44633 5.49924C3.08927 5.37427 3.05825 5.51489 2.88745 5.70239C2.51484 5.62421 2.46834 5.76484 2.23543 6.10868C2.23543 6.10868 2.51484 6.06181 3.05817 6.15548C3.58603 6.23358 4.02069 5.71796 4.02069 5.73361Z" fill="#565656"/>
    <path d="M4.08266 5.65538C4.08266 5.65538 3.98953 5.5772 4.02062 5.56155C3.8499 5.4678 3.61699 5.35848 3.50831 5.65538C3.15124 5.53033 3.10467 5.70225 2.93395 5.88983C2.4993 5.68668 2.46828 5.93662 2.43719 6.04602C2.57689 6.04602 2.77863 6.06167 3.05811 6.0929C3.58589 6.17107 4.09821 5.63973 4.08266 5.65538Z" fill="#565656"/>
    <path d="M9.36099 5.26489C9.36099 5.26489 8.47613 5.57736 7.73098 5.53049C6.98583 5.46804 5.71289 5.40552 5.02986 5.81181C5.02986 5.81181 4.33127 5.56171 3.67926 5.73364C3.02716 5.90549 1.83189 7.03063 2.18888 8.21822C2.21998 8.29639 2.42179 8.42137 2.65463 8.49954C2.65463 8.49954 2.5304 9.03081 2.74776 9.46833C2.96513 9.89028 3.44635 10.7029 3.46189 11.8279C3.47737 12.0154 3.50838 12.4061 3.53948 12.5936C4.75038 12.5468 6.61322 12.0935 8.44504 12.1248C8.42957 11.9218 8.41402 11.7967 8.39847 11.5936H8.35198C8.44511 11.0779 8.47613 10.8122 8.56934 10.4215C9.15924 10.0466 9.78024 9.60903 10.308 8.78079C10.8203 7.95254 9.36099 5.26489 9.36099 5.26489ZM3.36876 13.7031C3.36876 13.7031 2.40624 17.1722 3.53948 18.6255C3.53948 18.6255 3.36876 19.2974 3.75684 20.0162C3.81896 20.3287 3.89662 20.61 3.94311 20.9225C4.14493 22.2195 4.48652 22.7664 4.57966 24.8447L5.51115 24.8291C5.51115 24.8291 5.61984 23.329 5.94581 22.5321C6.132 22.079 6.86175 21.4694 6.83058 20.8601C6.79956 20.3912 6.70643 20.0006 5.91463 19.3755C5.85259 18.4692 6.753 17.6097 6.61322 14.2344L3.36876 13.7031Z" fill="#565656"/>
    <path d="M3.64794 13.5624C3.39956 15.1563 2.8252 17.5159 3.8653 18.6722C3.80393 18.9654 3.79868 19.2677 3.84983 19.5629C3.88085 19.7504 3.94297 19.9536 4.02055 20.1723C4.1758 20.5474 4.23792 21.0943 4.28448 21.4224C4.4863 22.7194 4.4863 22.782 4.57943 24.8603L5.51093 24.8446C5.51093 24.8446 5.61961 23.3445 5.94558 22.5476C6.13178 22.0945 6.51994 21.7038 6.55096 21.0944C6.58197 20.6256 6.25601 19.688 5.47976 19.7193C5.52633 17.8285 6.39571 18.2035 6.62854 14.2656L3.64794 13.5624ZM9.36076 5.26489C9.36076 5.26489 9.01924 5.37429 8.64671 5.40552C8.27409 5.43674 7.87046 5.40552 7.51347 5.38987C6.76832 5.32742 5.71267 5.24924 5.01409 5.65554C5.01409 5.65554 4.626 5.53049 4.20682 5.56171C4.02055 5.57736 3.83421 5.73364 3.61692 5.79616C2.93388 5.96801 2.28187 7.10873 2.57689 8.14012C2.60791 8.21829 2.82528 8.14012 3.07366 8.21829C3.02717 8.43709 2.996 8.93714 3.24446 9.46841C3.50831 9.99975 3.84983 10.6873 3.78779 11.9999C5.4178 11.9218 6.1474 11.8124 7.76193 11.7343C7.90163 11.156 7.99484 10.5779 8.01031 10.281C7.79295 10.1716 7.66887 10.0779 7.498 9.89036C7.96367 9.96853 8.15001 9.93723 8.42949 9.78096C8.7089 9.62468 9.20566 9.12464 9.45405 8.79651C9.48507 8.76521 9.65579 9.28083 10.0439 9.29656C10.1837 9.09341 9.59375 8.51519 9.70243 8.29647C10.0904 7.49945 9.36076 5.26489 9.36076 5.26489Z" fill="#565656"/>
    <path d="M3.5241 12.2654C3.5241 12.2654 3.49308 12.828 3.49308 12.9686C3.49308 13.1249 3.36885 13.5936 3.35338 13.8124C3.5241 14.1093 4.26925 14.7813 5.61985 15.0313C6.9549 15.3125 8.72461 13.203 8.72461 13.203C8.67804 12.9999 8.52279 12.406 8.41411 12.0935C8.39856 12.0623 8.36754 11.9841 8.36754 11.9529C8.22777 11.7498 3.5241 12.2654 3.5241 12.2654Z" fill="#565656"/>
    <path d="M3.86501 12.3123C3.86501 12.7029 3.80297 12.9842 3.75633 13.2343C3.67874 13.6874 3.55459 13.9843 3.55459 14.2812C3.55459 15.1875 4.73439 15.0312 5.728 15.0625C7.06305 15.3439 8.19629 13.2343 8.19629 13.2343C8.10315 12.8748 8.04104 12.4686 7.90134 12.1248C7.88587 11.9373 7.85477 11.7029 7.8393 11.5935C5.94537 11.5935 4.61031 11.7029 3.83407 11.7809C3.80297 11.9529 3.83399 12.2497 3.86501 12.3123Z" fill="#565656"/>
    <path d="M5.35554 14.328C5.35554 14.328 6.17828 12.4841 8.64664 13.0311C9.23647 14.7031 10.0283 16.6252 9.51595 18.7035C10.0283 19.4067 10.6182 19.7974 10.6182 21.0943C10.6182 22.3913 10.556 22.6101 10.556 22.6101L8.73978 22.7039C8.73978 22.7039 8.14987 21.9383 7.91704 21.11C7.85492 20.8756 7.79281 20.4537 7.83938 19.9693C7.77734 19.8756 7.51341 19.6568 7.48231 19.2349C7.48231 19.2349 6.59746 18.7661 6.08514 17.6254C5.60385 16.5939 5.72808 15.7032 5.35554 14.328Z" fill="#565656"/>
    <path d="M5.35584 14.3282C5.40233 14.1564 6.02333 12.4687 8.32089 12.9687C9.67142 16.5941 9.17465 18.0942 8.97291 18.7504C9.88886 19.9224 10.308 20.1724 10.1216 22.5477H8.91072C8.35192 21.657 8.22769 21.3288 8.19667 20.1568C8.19667 20.11 8.36739 20.2506 8.49162 20.4069C8.39841 19.9225 8.13455 19.8287 7.93273 19.5318C7.8396 19.4068 7.76201 19.2193 7.76201 18.9692C6.67534 18.2348 6.27171 17.3128 6.03888 16.3596C5.85253 15.7034 5.63524 14.6251 5.35584 14.3282Z" fill="#565656"/>
    <path d="M9.19012 11.8125C9.19012 11.8125 8.77094 11.8281 8.39833 11.9531C8.04126 12.0781 8.04126 12.1562 7.90156 12.3125C7.76186 12.4689 7.42034 12.7032 7.48238 12.9376C7.51347 13.0626 7.59106 13.0938 7.69974 13.2032C7.74631 13.2501 8.0879 13.6251 8.16549 13.672C8.21206 13.7032 8.27417 13.7502 8.32074 13.7814L8.55358 13.9377C8.70882 14.0158 8.81751 14.0627 8.98823 14.0471C8.98823 14.0471 9.37631 14.0314 9.62477 13.7658C9.62477 13.7658 9.65579 13.6408 9.59368 13.5783C9.59368 13.5783 9.91972 13.297 10.0129 13.1095C10.1061 12.9221 10.1061 12.6564 10.0439 12.5158C10.0129 12.375 9.40749 11.9843 9.19012 11.8125ZM8.80196 27.0169L8.84853 27.4077C8.84853 27.4077 8.98823 27.5795 10.0283 27.5639C11.084 27.5483 11.3634 27.2202 11.4565 27.0483L11.5186 26.642C11.5186 26.642 11.3167 26.3451 11.2702 26.3451C10.9287 26.3763 9.76432 26.8451 8.95706 26.9701C8.87962 26.9701 8.86415 27.0013 8.80196 27.0169ZM6.55104 26.22C6.55104 26.3919 6.56658 26.3919 6.56658 26.5638C6.38031 26.7044 5.91449 26.7826 5.02971 26.7669C3.74123 26.7356 2.54588 27.1576 1.08667 26.9075L1.07112 26.6262L1.21083 26.6107L6.38031 26.1887L6.55104 26.22Z" fill="#565656"/>
    <path d="M5.41779 26.7669H5.02971C4.19135 26.7356 3.39963 26.9231 2.54587 26.97C2.09567 26.9544 1.53679 26.845 1.58336 26.5168L5.99215 26.1418C6.25608 26.4387 6.05434 26.6887 5.41779 26.7669ZM10.4786 20.1882C10.3389 20.2819 9.39193 20.8445 7.85506 20.7663C7.88616 21.0632 7.87061 21.6414 8.55365 22.6571C8.89516 23.1571 9.19019 24.0323 9.25223 25.1418C9.23668 25.3918 9.09698 25.6105 9.28325 25.9387C9.22121 26.1418 8.97283 26.5481 8.8486 26.7981C8.72444 27.0482 8.66233 27.3294 9.48514 27.3451C10.3234 27.3607 11.674 27.2669 11.4877 26.6107C11.3945 26.2669 11.1306 25.9075 11.0995 25.7668C11.0685 25.6261 11.0685 25.2043 10.8046 24.923C10.5717 24.1417 10.6494 23.3916 10.6959 22.6884C10.7736 21.9539 10.7891 20.782 10.4786 20.1882ZM9.03486 7.45265C7.93265 5.96808 8.86414 4.78057 10.6338 5.13992C11.3479 5.28054 12.062 5.78066 12.1086 6.68693C12.3414 6.71815 12.8692 6.74938 13.1332 7.71824C13.3349 8.46831 13.4436 8.60894 13.8007 8.98393C14.0336 9.2496 13.7852 9.79653 13.6145 10.1872C13.04 11.5311 11.2703 11.6561 10.075 12.6718C9.67133 12.5624 9.25223 12.1093 9.128 11.8124C10.1371 10.6091 9.91979 10.1404 10.3234 9.51535C9.8887 9.359 8.89516 8.74964 9.03486 7.45265Z" fill="#565656"/>
    <path d="M9.25269 7.35881C9.19065 7.26498 9.08196 7.06191 9.03532 6.98374C9.01977 6.96808 8.84905 7.26498 8.8335 7.24941C8.4144 6.56179 8.30572 5.5617 8.78701 5.46795C8.8957 5.4523 9.09744 5.4055 9.26823 5.3429C9.57866 5.2335 9.85806 5.2335 10.3549 5.32732C11.0379 5.4523 11.721 5.95234 11.721 6.67119C11.721 6.71806 11.2398 6.85869 11.1001 7.43691C11.333 7.10871 11.7366 6.74929 12.2178 7.06183C12.7301 7.38996 12.4662 8.14002 13.1492 8.92132C13.3821 9.18699 13.3511 9.49954 13.1027 10.1246C12.6991 11.1091 10.7896 11.6403 9.74953 12.5779C9.50114 12.4685 9.33042 12.2185 9.20619 12.031C9.90478 11.2966 10.1843 10.609 10.386 10.1089C10.6344 9.53076 10.9139 9.20264 11.4572 8.76497C11.1777 8.87437 10.9604 8.98377 10.8363 9.07751C10.6966 9.17126 10.4948 9.18691 10.3084 9.12439C9.64077 8.89017 9.2837 7.95253 9.25269 7.35881Z" fill="#565656"/>
    <path d="M2.49916 7.60874C2.54573 8.20253 2.98038 7.90564 3.21322 7.79624C3.67897 7.59309 4.14471 7.45246 4.68805 7.45246C5.23138 7.45246 5.92997 7.49934 6.53534 7.65561C7.37362 7.88999 7.62208 7.87441 7.99462 7.68684C8.36716 7.48369 9.0191 6.98364 9.0191 6.98364C9.0191 6.98364 9.03465 7.13992 8.8794 7.34307C8.67766 7.59309 8.22738 7.90564 7.62201 8.10871C7.32706 8.20253 7.09414 8.13993 6.83021 8.07748C5.44859 7.73371 3.98939 7.67119 2.76302 8.42125C2.7009 8.45248 2.48354 8.35873 2.3904 8.21811C2.26633 8.01504 2.49916 7.60874 2.49916 7.60874Z" fill="#565656"/>
    <path d="M9.5625 13.5625C9.43835 13.6407 9.2831 13.6875 9.11238 13.8282C9.11238 13.8282 9.25208 13.8282 9.31412 13.7657C9.39178 13.7189 9.54703 13.5782 9.5625 13.5625Z" fill="#565656"/>
    <path d="M5.07602 1.17075C5.12258 1.03013 5.46418 0.780029 6.25582 0.780029C7.10965 0.780029 7.35804 1.0457 7.37351 1.18633C7.37351 1.2332 7.43562 1.73332 7.45117 1.93639C7.45117 1.93639 7.45117 2.18642 7.4357 2.56141C7.42015 2.81144 7.35804 2.95206 7.32702 3.28026C7.296 3.62395 7.20279 3.84275 7.03207 4.12408C6.95441 4.17087 6.89237 4.21783 6.8147 4.23348C6.5042 4.29592 5.96087 4.31157 5.66592 4.23348C5.4952 4.1866 5.27783 3.8897 5.23127 3.62403C5.16923 3.29591 5.10711 3.06146 5.09157 2.85839C5.06055 2.65532 5.045 2.20207 5.02953 2.07702C4.98288 1.73332 5.06055 1.20198 5.07602 1.17075Z" fill="#565656"/>
    <path d="M6.70681 20.4849C6.70681 20.4849 5.884 20.8443 3.85037 20.5317C3.85037 20.5317 4.42472 23.4383 4.16079 24.8914C4.16079 24.8914 3.89693 25.2665 1.94088 25.9853C1.94088 25.9853 1.07158 26.2041 1.1026 26.6417C1.1026 26.6417 1.07158 26.7354 2.12715 26.7041C3.18272 26.6728 4.17634 26.4853 4.87492 26.4853C5.5735 26.4853 6.31865 26.5166 6.44281 26.3135C6.58251 26.126 6.41179 25.6415 6.20997 25.3602C5.99253 25.0634 6.05472 24.8445 6.07019 24.3133C6.11691 22.9226 7.17256 21.485 6.70681 20.4849Z" fill="#565656"/>
    <path d="M6.87686 20.7507C6.98555 20.907 6.86139 21.5007 6.70614 22.0789C6.55089 22.6571 6.2093 23.0009 6.13171 23.9541C6.05413 24.8916 6.03858 25.0167 6.30251 25.5635C6.56644 26.1104 6.64403 26.6105 5.72816 26.6261C4.81228 26.6418 4.31544 26.6105 3.38402 26.7512C2.45253 26.8918 2.12655 26.9387 1.61424 26.8606C1.10192 26.7825 0.99332 26.6105 1.21061 26.4543C1.42797 26.298 2.32837 26.1262 2.71646 25.8135C3.08907 25.5323 4.14464 25.0635 4.16011 24.9385C4.20668 24.5166 4.22223 22.9852 4.14464 22.4852C4.06698 21.985 3.95837 21.2663 3.92728 21.0788C3.89618 20.8913 3.74101 20.7037 4.00494 20.7662C4.2688 20.8287 5.26233 20.9694 6.00748 20.9225C6.75263 20.8757 6.83022 20.7038 6.87686 20.7507Z" fill="#565656"/>
    <path opacity="0.3" d="M6.34963 25.5792C6.08577 25.7042 5.69761 25.798 5.40266 25.798C5.40266 25.798 5.51142 26.3137 5.34062 26.6262C5.1699 26.9387 6.58254 26.7512 6.58254 26.7512L6.64458 25.6418L6.34963 25.5792ZM2.23579 26.9231C1.98741 26.8449 1.81661 26.5637 2.01843 26.2981C2.23579 26.0324 2.42206 25.9855 2.14265 25.97C1.86317 25.9543 0.838622 26.5793 0.838622 26.5793L1.36648 27.0637L2.23579 26.9231ZM6.92406 21.3601C6.56699 21.4851 6.02366 21.5163 5.55791 21.5007C5.09224 21.4851 4.39366 21.4225 3.94338 21.2663C3.49325 21.11 3.67952 21.4382 3.67952 21.4382L3.92791 21.6726C3.92791 21.6726 4.51781 21.907 5.48025 21.8914C6.61348 21.8758 6.95508 21.7508 6.95508 21.7508L6.92406 21.3601ZM6.89304 22.1414C6.5359 22.2665 5.99264 22.2977 5.52689 22.2821C5.06122 22.2665 4.44022 22.2665 3.99002 22.0946C3.80375 22.0321 3.91236 22.2977 3.91236 22.2977L3.99002 22.4383C3.99002 22.4383 4.59547 22.6571 5.54244 22.6414C6.67567 22.6258 6.87749 22.532 6.87749 22.532L6.89304 22.1414Z" fill="#565656"/>
    <path d="M7.91699 11.1873C7.91699 11.2967 6.70609 11.906 6.03861 12.0311C5.37104 12.156 3.97387 12.0311 3.75659 11.9842L3.78768 12.203C3.78768 12.203 5.4487 12.453 6.72164 12.1092C7.99465 11.7655 7.85488 11.6873 7.85488 11.6873L7.91699 11.1873Z" fill="#565656"/>
    <path d="M10.5096 24.5165C10.3233 24.6103 9.65572 24.7822 9.22107 24.6884C9.15903 24.6728 9.22107 23.6102 9.05027 23.1258C8.80189 22.4538 8.39826 21.9069 8.21207 20.7194C8.86408 20.6568 9.60916 20.4849 9.99732 20.3599C10.494 21.8913 10.3232 23.2039 10.5096 24.5165ZM9.46938 25.501C9.3607 25.5322 9.28311 25.6572 9.25201 25.5792C9.18998 25.4385 9.3607 25.1729 9.37624 24.9854V24.9698C9.51595 24.8448 10.4629 24.8291 10.4008 24.8916C10.5095 25.0947 10.6802 25.0635 10.7422 25.4698C10.7733 25.6729 10.5249 25.501 10.2921 25.4854C10.7112 25.7666 11.1924 26.1261 11.2701 26.4386C11.3632 26.8761 11.208 27.0012 10.7422 27.2356C10.3386 27.3294 9.85739 27.345 9.48485 27.3294C9.06567 27.2512 8.98801 27.0481 9.11224 26.7668C9.29866 26.3448 9.42281 25.7979 9.46938 25.501Z" fill="#565656"/>
    <path d="M9.29896 5.20239C8.78664 5.49929 8.07251 5.42119 7.80865 5.40554C7.74654 5.40554 7.12554 5.29614 7.09452 5.31172C7.03248 5.32737 7.03248 5.37424 7.03248 5.37424C7.03248 5.37424 7.26532 5.49921 7.79311 5.53044C8.28987 5.56166 8.87978 5.53044 9.20575 5.37424C9.59391 5.20239 9.29896 5.20239 9.29896 5.20239ZM4.02079 5.49929C3.92765 5.56174 3.3222 5.79619 3.05827 6.07743C2.82544 6.32753 2.94959 6.31188 2.99623 6.24936C3.05827 6.17118 3.53956 5.84306 3.72583 5.76496C3.9121 5.68686 4.14501 5.54616 4.14501 5.51494C4.14501 5.48372 4.02079 5.49929 4.02079 5.49929Z" fill="#565656"/>
    <path d="M9.37698 11.9841C8.92678 11.9529 8.46103 12.0623 8.16608 12.3748C8.01083 12.531 7.76245 12.7029 7.79347 12.8592C7.79347 12.906 7.88668 13.0311 7.96419 13.1248C8.01076 13.1873 8.15046 13.3279 8.1971 13.3749C8.25914 13.4217 8.4765 13.5937 8.52307 13.6249C8.56964 13.6562 8.63175 13.7344 8.67832 13.7499C8.83349 13.8281 9.00429 13.7656 9.15954 13.6875C9.31471 13.6093 9.12845 13.5937 9.29924 13.4687C9.71835 13.1718 9.95126 12.9686 9.78046 12.3904C9.76499 12.281 9.59427 12.156 9.37698 11.9841Z" fill="#565656"/>
    <path opacity="0.4" d="M13.3347 8.40578C14.7319 8.96835 18.2869 10.7498 19.2959 11.2967C18.4576 11.828 18.0695 13.1093 17.9453 14.4063C17.9298 14.5314 17.9143 14.6408 17.8987 14.7658C17.8833 14.8752 17.8677 14.9533 17.8522 15.0002C17.8522 15.0159 17.8522 15.0471 17.8367 15.0627C16.9207 12.5468 13.6453 9.89035 13.521 9.6872C13.459 9.59345 13.5987 9.18715 13.3813 8.79658C13.1019 8.29638 12.5584 8.07758 13.3347 8.40578ZM10.0126 20.2037C9.29852 18.7661 9.28297 17.391 9.29852 15.7814C9.29852 15.1094 8.8173 14.1562 9.0656 14.4219C9.9971 15.4688 12.3412 17.4378 14.0333 17.5472C11.6581 17.4691 10.7267 18.6723 10.0126 20.2037Z" fill="#565656"/>
    <path d="M20.6621 12.6249C19.7773 11.9843 15.1977 9.53098 14.0955 9.18713C12.9933 8.82771 13.3348 8.40576 13.3348 8.40576C13.3348 8.40576 17.8057 10.3434 20.4758 12.0155" fill="#565656"/>
    <path opacity="0.4" d="M7.62262 8.10881C7.97969 7.96819 8.25909 8.39014 8.16596 8.79643C8.07275 9.20273 7.23446 9.65582 7.28111 11.1404C7.31213 12.3593 7.57606 12.8592 7.57606 12.8592L8.16596 12.1093C8.16596 12.1093 8.25909 10.4215 8.46091 10.1715C8.66265 9.9215 9.29919 9.46833 9.54758 9.23395C9.79596 8.99951 9.26817 8.68703 9.29919 8.24944C9.33021 7.82757 9.03526 6.98375 9.03526 6.98375L7.62262 8.10881ZM5.46476 14.7656C5.49578 15.9375 5.23185 17.6721 5.12324 18.5004C5.01456 19.3285 4.87486 19.3911 5.12324 19.7661C5.37162 20.1256 5.69759 20.7194 5.69759 20.7194L6.76879 20.6255C6.76879 20.6255 5.91496 19.5317 5.86847 19.3285C5.8219 19.1255 6.30312 17.5785 6.30312 17.5785L5.46476 14.7656ZM7.52941 3.8272C7.31205 4.31152 7.04819 4.53032 6.62909 4.67102C6.38071 4.76477 5.40272 4.88981 5.01456 4.45222C4.84384 4.24907 4.95252 3.70215 4.95252 3.70215L5.83737 4.42092L7.03272 4.20219L7.17242 3.84277L7.52941 3.8272Z" fill="#565656"/>
    <path d="M7.43639 4.90552C7.03276 5.17119 6.02368 5.42121 5.74427 5.46809C5.46487 5.53054 5.01467 5.17119 4.79731 5.07744C4.56439 4.96804 4.16076 4.90552 3.69509 5.32746C3.64852 5.37434 3.80377 5.57749 3.80377 5.57749C3.81932 5.56184 3.91246 5.56184 4.03668 5.49931C4.16084 5.43686 4.26952 5.38991 4.45579 5.40556C5.23204 5.49931 5.35619 5.76499 6.03923 5.60864C6.72226 5.45228 6.89306 5.32739 7.56055 5.35861" fill="#565656"/>
    <path d="M7.57558 4.95239C7.06326 5.17119 6.06973 5.40556 5.79033 5.46809C5.51092 5.53061 5.06072 5.24929 4.84336 5.10867C4.4552 4.85864 3.95851 5.06179 3.72559 5.32747C3.57042 5.49931 3.50823 5.60871 3.50823 5.65559C3.50823 5.71804 3.6945 5.65559 3.6945 5.65559C3.80318 5.60871 3.92741 5.59314 4.02047 5.53054C4.1447 5.46809 4.26893 5.37434 4.45512 5.38991C5.23137 5.48374 5.38662 5.74934 6.05411 5.59306C6.72159 5.43679 6.89239 5.29616 7.60645 5.34296" fill="#565656"/>
    <path d="M9.98194 19.5473C10.013 19.5161 9.95092 19.4848 9.98194 19.4848C10.1837 19.4848 10.4632 19.3286 10.6185 19.1098C11.286 18.141 12.264 17.5003 14.0337 17.5472C16.6884 17.6096 17.744 16.5159 17.9458 14.4219C18.0544 13.2812 18.3649 12.1717 19.0014 11.5466L19.374 11.7811C18.66 12.4061 18.4271 13.4218 18.2718 14.8126C18.0234 16.9065 16.3469 17.8754 14.3908 17.9066C12.3572 17.9378 11.6276 18.3598 10.8669 19.3912C10.6186 19.7193 10.3391 19.8287 10.1218 19.8756L9.98194 19.5473Z" fill="#565656"/>
    <path opacity="0.4" d="M2.7787 9.49951C2.73213 9.73388 2.60798 10.1871 2.3596 10.4058C2.25084 10.5152 2.23536 10.5464 2.3285 10.5464C2.42171 10.5464 3.10475 10.5152 3.10475 10.5152L3.29102 10.1871L2.7787 9.49951Z" fill="#565656"/>
    </g>
    <defs>
    <clipPath id="clip0_668_235">
    <rect width="24" height="28" fill="white" transform="matrix(-1 0 0 1 24 0)"/>
    </clipPath>
    </defs>
    </svg>
    